<svg xmlns="http://www.w3.org/2000/svg" xmlns:xlink="http://www.w3.org/1999/xlink" width="141" height="131" viewBox="0 0 141 131"><defs><style>.a{fill:rgba(243,163,39,0.28);}.b{fill:url(#a);}</style><linearGradient id="a" x1="0.5" x2="0.5" y2="1" gradientUnits="objectBoundingBox"><stop offset="0" stop-color="#f69322"/><stop offset="1" stop-color="#e88300"/></linearGradient></defs><g transform="translate(-183 -2290)"><rect class="a" width="141" height="131" rx="12" transform="translate(183 2290)"/><path class="b" d="M56.812,10.1A3.787,3.787,0,0,0,60.6,6.312V3.787A3.787,3.787,0,0,0,56.812,0H3.787A3.787,3.787,0,0,0,0,3.787V6.312A3.787,3.787,0,0,0,3.787,10.1c0,14.355,8.051,26.471,19.07,30.3C11.838,44.229,3.787,56.345,3.787,70.7A3.787,3.787,0,0,0,0,74.487v2.525A3.787,3.787,0,0,0,3.787,80.8H56.812A3.787,3.787,0,0,0,60.6,77.012V74.487A3.787,3.787,0,0,0,56.812,70.7c0-14.355-8.051-26.471-19.07-30.3C48.762,36.571,56.812,24.455,56.812,10.1ZM30.3,32.825c-9.12,0-16.412-10.5-16.412-22.725H46.712C46.712,22.4,39.373,32.825,30.3,32.825Z" transform="translate(223 2315)"/></g></svg>