<svg xmlns="http://www.w3.org/2000/svg" xmlns:xlink="http://www.w3.org/1999/xlink" width="141" height="131" viewBox="0 0 141 131"><defs><style>.a{fill:rgba(243,163,39,0.28);}.b{fill:url(#a);}</style><linearGradient id="a" x1="0.5" x2="0.5" y2="1" gradientUnits="objectBoundingBox"><stop offset="0" stop-color="#f69322"/><stop offset="1" stop-color="#e88300"/></linearGradient></defs><g transform="translate(-752 -2290)"><rect class="a" width="141" height="131" rx="12" transform="translate(752 2290)"/><path class="b" d="M60.5,18.384H4.034A4.034,4.034,0,0,1,0,14.351V6.284A4.034,4.034,0,0,1,4.034,2.25H60.5a4.034,4.034,0,0,1,4.034,4.034v8.067A4.034,4.034,0,0,1,60.5,18.384ZM54.454,7.292a3.025,3.025,0,1,0,3.025,3.025A3.025,3.025,0,0,0,54.454,7.292Zm-8.067,0a3.025,3.025,0,1,0,3.025,3.025A3.025,3.025,0,0,0,46.387,7.292ZM60.5,38.553H4.034A4.034,4.034,0,0,1,0,34.519V26.452a4.034,4.034,0,0,1,4.034-4.034H60.5a4.034,4.034,0,0,1,4.034,4.034v8.067A4.034,4.034,0,0,1,60.5,38.553ZM54.454,27.46a3.025,3.025,0,1,0,3.025,3.025A3.025,3.025,0,0,0,54.454,27.46Zm-8.067,0a3.025,3.025,0,1,0,3.025,3.025A3.025,3.025,0,0,0,46.387,27.46ZM60.5,58.721H4.034A4.034,4.034,0,0,1,0,54.687V46.62a4.034,4.034,0,0,1,4.034-4.034H60.5a4.034,4.034,0,0,1,4.034,4.034v8.067A4.034,4.034,0,0,1,60.5,58.721Zm-6.05-11.092a3.025,3.025,0,1,0,3.025,3.025A3.025,3.025,0,0,0,54.454,47.628Zm-8.067,0a3.025,3.025,0,1,0,3.025,3.025A3.025,3.025,0,0,0,46.387,47.628Z" transform="translate(790 2324.75)"/></g></svg>