<svg xmlns="http://www.w3.org/2000/svg" xmlns:xlink="http://www.w3.org/1999/xlink" width="141" height="131" viewBox="0 0 141 131"><defs><style>.a{fill:rgba(243,163,39,0.28);}.b{fill:url(#a);}</style><linearGradient id="a" x1="0.5" x2="0.5" y2="1" gradientUnits="objectBoundingBox"><stop offset="0" stop-color="#f69322"/><stop offset="1" stop-color="#e88300"/></linearGradient></defs><g transform="translate(-1321 -2290)"><rect class="a" width="141" height="131" rx="12" transform="translate(1321 2290)"/><path class="b" d="M20.394,27.379V38.3a3.278,3.278,0,0,1-3.278,3.278H3.278A3.278,3.278,0,0,1,0,38.3V27.379A3.278,3.278,0,0,1,3.278,24.1H17.116A3.278,3.278,0,0,1,20.394,27.379ZM0,49.229V60.155a3.278,3.278,0,0,0,3.278,3.278H17.116a3.278,3.278,0,0,0,3.278-3.278V49.229a3.278,3.278,0,0,0-3.278-3.278H3.278A3.278,3.278,0,0,0,0,49.229ZM17.116,2.25H3.278A3.278,3.278,0,0,0,0,5.528V16.453a3.278,3.278,0,0,0,3.278,3.278H17.116a3.278,3.278,0,0,0,3.278-3.278V5.528A3.278,3.278,0,0,0,17.116,2.25ZM28.042,63.432h38.6a3.278,3.278,0,0,0,3.278-3.278V49.229a3.278,3.278,0,0,0-3.278-3.278h-38.6a3.278,3.278,0,0,0-3.278,3.278V60.155A3.278,3.278,0,0,0,28.042,63.432Zm-3.278-57.9V16.453a3.278,3.278,0,0,0,3.278,3.278h38.6a3.278,3.278,0,0,0,3.278-3.278V5.528A3.278,3.278,0,0,0,66.645,2.25h-38.6A3.278,3.278,0,0,0,24.764,5.528Zm3.278,36.054h38.6A3.278,3.278,0,0,0,69.923,38.3V27.379A3.278,3.278,0,0,0,66.645,24.1h-38.6a3.278,3.278,0,0,0-3.278,3.278V38.3A3.278,3.278,0,0,0,28.042,41.582Z" transform="translate(1357 2322.75)"/></g></svg>