<svg xmlns="http://www.w3.org/2000/svg" width="89.348" height="83.011" viewBox="0 0 89.348 83.011"><defs><style>.a{fill:#fefefe;}.b{fill:#f69322;}.c{fill:#5a595c;}.d{fill:#919396;}.e{fill:#f3a327;}.f{fill:#fe0004;}.g{fill:#4c4c4f;}.h{fill:#5e5d60;}.i{fill:#fdfdfd;}</style></defs><g transform="translate(0 0.005)"><path d="M88.647,12.706a26.127,26.127,0,0,0-7-11.5A4.193,4.193,0,0,0,79.9.132a2.264,2.264,0,0,0-2.889,1.2A3.012,3.012,0,0,0,77,3.153a20.3,20.3,0,0,1,.153,8.062,15,15,0,0,1-5.677,8.974A20.328,20.328,0,0,1,63.1,24.21a.373.373,0,0,1-.391-.141,20.578,20.578,0,0,0-12.452-5.512c-.225-.017-.27-.106-.286-.3-.041-.5-.13-1-.151-1.506a1.456,1.456,0,0,0-.847-1.3,8.524,8.524,0,0,0-3.448-1,8.933,8.933,0,0,0-5.277,1.065,1.277,1.277,0,0,0-.721,1.1c-.029.518-.122,1.032-.149,1.549-.015.28-.1.383-.39.4a14.481,14.481,0,0,0-2.949.444,21.213,21.213,0,0,0-9.417,5.059.371.371,0,0,1-.392.143,20.432,20.432,0,0,1-7.236-3.164,16.233,16.233,0,0,1-6.3-7.883,19.328,19.328,0,0,1-.636-8.646c.078-.754.354-1.474.385-2.235A2.113,2.113,0,0,0,10.208,0,3.589,3.589,0,0,0,7.782,1.123,28.508,28.508,0,0,0,3.271,6.755,20.4,20.4,0,0,0,.986,24.146a24.294,24.294,0,0,0,6.77,10.673,17.544,17.544,0,0,0,6.227,4.2c.17.059.2.162.19.318a2.353,2.353,0,0,0,.162,1.114c.108.233.052.346-.162.458a1.2,1.2,0,0,0-.654,1.178c.016,1.08.081,2.164,0,3.237a1.687,1.687,0,0,0,1.288,2.035c.283.081.338.2.188.5a38.962,38.962,0,0,0-3.378,9.29,20.177,20.177,0,0,0-.152,8.31A15.813,15.813,0,0,0,17.083,74.5,33.79,33.79,0,0,0,27.1,80.159,49.855,49.855,0,0,0,43.61,82.991a56.279,56.279,0,0,0,12.8-1.159,34.651,34.651,0,0,0,5.8-1.679,1.926,1.926,0,0,0,1.266-.905,11.563,11.563,0,0,1,.693-1.077c.087.261.152.454.216.648.14.329.07.439.425.261.306-.154.636-.284.947-.439a35.836,35.836,0,0,0,5.323-3.212,17,17,0,0,0,6.313-8.25,18.306,18.306,0,0,0,.543-8.77.868.868,0,0,0-.483-.655c-.3-.17-.583-.306-.922-.489a5.6,5.6,0,0,0,.662-.448c.262-.244.362-.363.275-.7a42.19,42.19,0,0,0-2.827-7.628c-.143-.3-.45-.645-.389-.9.069-.294.551-.352.86-.5a1.029,1.029,0,0,0,.662-.983c0-1.388.074-2.775.018-4.164-.01-.262-.037-.581-.248-.687-.747-.374-.549-.942-.4-1.524a.764.764,0,0,0,.021-.334c-.083-.422-.157-.2.289-.412a9.286,9.286,0,0,0,2.229-1.073,25.943,25.943,0,0,0,10.057-12.1,20.123,20.123,0,0,0,.9-13.1ZM64.18,75.971A18.606,18.606,0,0,1,62.538,78.7V78.7a.359.359,0,0,0-.051-.035.807.807,0,0,0-.486.1A48.241,48.241,0,0,1,46.92,81.54a57.612,57.612,0,0,1-6.726-.134c-1.806-.145-3.6-.334-5.384-.648a37.345,37.345,0,0,1-11.489-3.831,25.507,25.507,0,0,1-7.054-5.172,14.4,14.4,0,0,1-2.642-4.076,16.17,16.17,0,0,1-.845-8.923c.026-.265.075-.527.125-.789a35.1,35.1,0,0,1,3.068-8.877c.415-.85.416-.854,1.294-.487a1.393,1.393,0,0,0,1.137.08,41.706,41.706,0,0,1,5.883-1.895A69.173,69.173,0,0,1,33.553,45.1q3.238-.366,6.493-.536c.8-.042,1.6-.016,2.394-.089a30.419,30.419,0,0,1,3.994-.039c1.889.076,3.78.134,5.664.309,1.354.126,2.709.227,4.058.407.279.037.393.143.382.427-.018.462-.012.925,0,1.388a.852.852,0,0,1-.294.662c-.245.241-.574.411-.7.759.128.184.327.149.5.137a1.7,1.7,0,0,1,1.287.512,2.748,2.748,0,0,1,.818,1.393,3.572,3.572,0,0,1-.847,3.695,1.626,1.626,0,0,1-2.377.008,2.862,2.862,0,0,1-.93-2.047,6.056,6.056,0,0,1,.271-2.315c-.017-.072.3-.375.229-.388a2.353,2.353,0,0,0-.688.434c-.462.428-.927.855-1.417,1.251a.9.9,0,0,0-.314,1.046,6.081,6.081,0,0,0,7.292,4.257l.005,0a1,1,0,0,0,.321.279,15.127,15.127,0,0,1,4.48,5.6,15.8,15.8,0,0,1,1.56,8.029,16.64,16.64,0,0,1-1.544,5.689ZM75.942,58c.373.176.637.389.637.829a19.113,19.113,0,0,1,.17,4.766A14.2,14.2,0,0,1,72.7,72.171a27.269,27.269,0,0,1-7.153,5.007,1.392,1.392,0,0,0,.249-.383,16.8,16.8,0,0,0,1.018-2.67,18.79,18.79,0,0,0,.578-6.833,16.58,16.58,0,0,0-1.67-5.96q-.112-.2-.22-.408a18.365,18.365,0,0,0-3.792-4.847c-.291-.271-.745-.455-.617-.946l.1-.069a1.736,1.736,0,0,0,.471-.661c.14-.005.281-.012.421-.012l6.777-.007,4,1.968c.065.194.255.247.414.328.884.448,1.765.9,2.661,1.324Z" transform="translate(0 0)"/><path class="a" d="M219.612,755.534a15.281,15.281,0,0,1,1.615,5.663,16,16,0,0,1-2.871,10.492,1.07,1.07,0,0,1-.42.393c-1.133.391-2.259.8-3.413,1.131a50.372,50.372,0,0,1-10.983,1.768,60.453,60.453,0,0,1-11.5-.435,37.109,37.109,0,0,1-18.155-7.19,14.869,14.869,0,0,1-5.589-8.079,16.678,16.678,0,0,1-.227-7.129,1.869,1.869,0,0,1,1.045-.255,14.047,14.047,0,0,1,9.467,2.3c.608.4,1.222.789,1.831,1.19a.492.492,0,0,1,.217.248,3.628,3.628,0,0,1-.041,1.127,20.748,20.748,0,0,0,1.207,7.681c.137.385.236.784.4,1.158a11.041,11.041,0,0,1-.7-2.812,19.024,19.024,0,0,1,.016-6.026,1.221,1.221,0,0,1,.157-.518c.248-.174.481.051.724.028a1.225,1.225,0,0,0,.758,0,3.592,3.592,0,0,0,1.554-.71c1.255-.854,2.388-1.866,3.605-2.77a21.435,21.435,0,0,1,5.7-3.123,17.307,17.307,0,0,1,5.316-.991,20.188,20.188,0,0,1,4.224.3,19.453,19.453,0,0,1,7.854,3.508c1.251.906,2.421,1.916,3.664,2.831a6.023,6.023,0,0,0,1.694.92,1.708,1.708,0,0,0,1.385-.123c.36-.191.749-.319,1.11-.508a.425.425,0,0,1,.36-.066Z" transform="translate(-155.397 -693.383)"/><path class="b" d="M883.56,44.764a20.875,20.875,0,0,1-5.835,14.249,22.444,22.444,0,0,1-4.925,4.181,6.728,6.728,0,0,1-4.066,1.131,4.413,4.413,0,0,1-1.195-.229,15.479,15.479,0,0,1-4.572-2.463,8.824,8.824,0,0,1-3.062-7.664c.028-.668.046-.689.7-.843a21.422,21.422,0,0,0,9.744-5.248,16.765,16.765,0,0,0,5.63-12.052,24.306,24.306,0,0,0-.5-6.186c-.032-.143-.139-.338-.018-.437.137-.112.314.027.461.092a2.664,2.664,0,0,1,.793.614,25.525,25.525,0,0,1,5.846,9,16.02,16.02,0,0,1,1,5.858Z" transform="translate(-796.391 -27.012)"/><path class="a" d="M885.821,809.925a16.112,16.112,0,0,0,1.608-4.562,17.955,17.955,0,0,0-1.37-11.28,1.593,1.593,0,0,1-.058-.157c.052-.195.218-.284.369-.383a14.7,14.7,0,0,1,6.3-2.393,14.5,14.5,0,0,1,3.971.079.877.877,0,0,1,.421.177c.924,5.6-.468,10.441-4.751,14.32a30.284,30.284,0,0,1-6.25,4.162.313.313,0,0,1-.239.037Z" transform="translate(-820.405 -732.636)"/><path class="c" d="M695.259,295.719c-1.213-.346-2.39-.7-3.578-1.015a57.56,57.56,0,0,0-8.922-1.6c-.953-.1-.925-.1-1.019-1.081-.2-2.075-.433-4.147-.647-6.222-.154-1.49-.3-2.981-.447-4.471-.011-.112-.01-.224-.025-.335-.1-.754-.1-.764.66-.657a19.183,19.183,0,0,1,9.884,4.517,1.594,1.594,0,0,1,.566,1.515,11.184,11.184,0,0,0,3.5,9.265c.009.008.01.025.032.084Z" transform="translate(-630.313 -259.595)"/><path class="c" d="M328.581,295.97c3.041-2.76,3.933-6.171,3.591-10.015a.612.612,0,0,1,.23-.545,18.752,18.752,0,0,1,5.707-3.654,16.646,16.646,0,0,1,4.862-1.264c.338-.033.451.016.407.408-.3,2.656-.565,5.315-.838,7.973q-.193,1.88-.366,3.761c-.032.34-.066.557-.53.6a60.353,60.353,0,0,0-12.53,2.557c-.144.046-.287.095-.534.176Z" transform="translate(-304.315 -259.776)"/><path class="d" d="M549.506,240.605a72.536,72.536,0,0,0-7.994.055c-.254.016-.312-.043-.286-.289.187-1.729.363-3.458.542-5.188q.4-3.912.809-7.825c.085-.823.179-1.645.25-2.469a.382.382,0,0,1,.284-.361,7.286,7.286,0,0,1,5.617,0,.385.385,0,0,1,.27.37c.3,2.916.6,5.83.907,8.745.231,2.232.453,4.464.691,6.7.028.263-.009.357-.292.314-.262-.041-.532-.035-.8-.05Z" transform="translate(-501.253 -207.432)"/><path class="e" d="M807.447,625.044c-2.154-1.118-4.232-2.19-6.3-3.277a2.048,2.048,0,0,0-1-.248c-2.147.011-4.3,0-6.443.012-.31,0-.414-.068-.454-.4a5.574,5.574,0,0,0-3.188-4.409.64.64,0,0,1-.426-.7c.035-.517.015-1.038.006-1.557,0-.205.023-.3.276-.256a56.145,56.145,0,0,1,12.352,3.2,1.211,1.211,0,0,0,1.046-.063c1.007-.479,1.01-.471,1.485.544a41.183,41.183,0,0,1,2.583,6.877c.017.065.032.13.068.278Z" transform="translate(-731.318 -568.844)"/><path class="e" d="M838.542,739.339a14.608,14.608,0,0,0-6.923.422,17.023,17.023,0,0,0-4.138,2.1,18.5,18.5,0,0,0-4.609-5.7c-.37-.311-.3-.152.153-.6a1.613,1.613,0,0,0,.4-.591.92.92,0,0,1,.6-.142c2.193-.009,4.385.01,6.577.022a1.072,1.072,0,0,1,.436.137c1.113.561,2.229,1.115,3.359,1.639.149.069.36.19.656.338,1.069.534,1.859,1.049,2.941,1.557a.943.943,0,0,1,.549.812Z" transform="translate(-761.885 -680.569)"/><path class="f" d="M729.951,656.83l1.173-1.019a2.5,2.5,0,0,1,2.777,2.351,3.847,3.847,0,0,1-.6,3.047,1.9,1.9,0,0,1-3.268-.013,3.068,3.068,0,0,1-.605-1.885,5.6,5.6,0,0,1,.322-2.172A.513.513,0,0,1,729.951,656.83Z" transform="translate(-675.556 -607.385)"/><path class="b" d="M52.65,53.676c-.021-.291-.2-.332-.407-.38a21.8,21.8,0,0,1-7.5-3.316,18.349,18.349,0,0,1-6.92-8.266,21,21,0,0,1-1.055-3.755c-.055-.654-.13-1.308-.162-1.963a34.921,34.921,0,0,1,.162-4.566h0c.125-.646.242-1.293.378-1.937.055-.261-.065-.263-.244-.2a2.963,2.963,0,0,0-1.124.794,29.15,29.15,0,0,0-3.751,4.8,18.26,18.26,0,0,0-2.416,14.752,21.937,21.937,0,0,0,5.909,10.17,18.883,18.883,0,0,0,5.15,3.954,5.542,5.542,0,0,0,4.167.47,13.576,13.576,0,0,0,5.032-2.73c2.325-2.086,3-4.807,2.778-7.825Z" transform="translate(-26.864 -27.104)"/><path class="d" d="M269.933,484.691a.491.491,0,0,0-.289-.494,44.185,44.185,0,0,0-6.057-3.019,55.4,55.4,0,0,0-13.485-3.5,43.087,43.087,0,0,0-5.028-.44h0l-.312-.013h0a4.31,4.31,0,0,0-1.124-.059,52.575,52.575,0,0,0-5.386-.005c-.154,0-.309-.007-.462,0a64.156,64.156,0,0,0-8.113.834,51.63,51.63,0,0,0-14.767,4.716,21.363,21.363,0,0,0-2.947,1.682,16.578,16.578,0,0,0,.017,2.859,18.092,18.092,0,0,0,1.84.9.787.787,0,0,0,.716.025c1.12-.45,2.266-.825,3.425-1.162a71.445,71.445,0,0,1,11.669-2.3,97.458,97.458,0,0,1,11.423-.671,99.138,99.138,0,0,1,11.838.76,59.942,59.942,0,0,1,14.5,3.4.555.555,0,0,0,.48.006c.6-.282,1.2-.552,1.8-.818a.36.36,0,0,0,.244-.385c-.008-.772-.008-1.543.013-2.314Z" transform="translate(-196.257 -441.864)"/><path class="g" d="M986.042,534.134c-.022.008-.064.038-.082.027-.043-.024-.1-.064-.107-.1-.016-.089.064-.063.108-.055S986.052,534.051,986.042,534.134Z" transform="translate(-913.048 -494.563)"/><path class="h" d="M221.408,534.3a.1.1,0,0,1-.115.093c-.037,0-.086-.016-.058-.067a.141.141,0,0,1,.089-.062C221.351,534.26,221.382,534.288,221.408,534.3Z" transform="translate(-204.89 -494.815)"/><path d="M489.661,780.261a12.518,12.518,0,0,1,3.484.387c1.479.465,1.791,1.461.834,2.678a4.9,4.9,0,0,1-2.921,1.779c-.467.1-.544.284-.544.708a2.453,2.453,0,0,0,1.073,2.276,3.959,3.959,0,0,0,3.177.555,4.127,4.127,0,0,0,3.051-3.57,1.41,1.41,0,0,0-.058-.366.624.624,0,0,1,.32-.676.686.686,0,0,1,.754.028.613.613,0,0,1,.259.7,9.23,9.23,0,0,1-1.05,2.717,5.2,5.2,0,0,1-2.784,2.185,4.815,4.815,0,0,1-4.4-.7,1.227,1.227,0,0,0-1.8-.014,5.077,5.077,0,0,1-7.476-1.858,9.391,9.391,0,0,1-.746-2.391.643.643,0,0,1,.609-.754.667.667,0,0,1,.717.662,3.857,3.857,0,0,0,2.359,3.808,3.8,3.8,0,0,0,4.425-.89,2.6,2.6,0,0,0,.407-1.67c.04-.433-.065-.606-.549-.676a5.068,5.068,0,0,1-3.224-1.732,2.978,2.978,0,0,1-.389-.6,1.313,1.313,0,0,1,.592-1.92,6.069,6.069,0,0,1,2.433-.6c.53-.048,1.063-.056,1.443-.074Z" transform="translate(-445.316 -722.645)"/><path class="e" d="M218.207,612.053a4.464,4.464,0,0,1-2.275.163,6.078,6.078,0,0,1-4.912-4.5.616.616,0,0,1,.23-.689c.6-.506,1.176-1.038,1.761-1.56.5-.442.651-.516.725-.59a5.33,5.33,0,0,0,.714-.664c.284-.264.557-.539.854-.786.225-.188.238-.322.256-.728a12.647,12.647,0,0,0,0-1.354c-.023-.4-.021-.473-.289-.506a95.214,95.214,0,0,0-11.544-.739,92.565,92.565,0,0,0-13.84,1.009,58.679,58.679,0,0,0-11.9,2.949c-1.445.541-.94.58-2.4-.052-.292-.126-.417-.111-.561.191a48.719,48.719,0,0,0-2.243,5.346,24.5,24.5,0,0,0-1.231,5.009c.083-.01.167-.018.25-.031a13.934,13.934,0,0,1,9.216,1.58c1.038.584,2.009,1.276,3.023,1.9.216-.012.168-.2.188-.315a11.148,11.148,0,0,1,2.136-4.707,23.627,23.627,0,0,1,1.817-2.207c.1-.1.217-.207.162-.362s-.224-.157-.36-.154c-.3,0-.588-.071-.88-.061a6.323,6.323,0,0,0-4.916,2.239,6.73,6.73,0,0,1,3.57-3.107,9.387,9.387,0,0,1,1.994-.51c.467-.065.482-.114.444-.568a6.251,6.251,0,0,1,.253-2.412,4.039,4.039,0,0,1,1.758-2.332c.4-.247.727-.157,1.157.291a7.536,7.536,0,0,0,2.307,1.676,1.326,1.326,0,0,1,.914.991c.03.18.055.361.071.542a5.03,5.03,0,0,1-1.481,4.37,2.414,2.414,0,0,1-2.8.455.7.7,0,0,0-.93.162c-.725.741-1.5,1.439-2.158,2.244a9.692,9.692,0,0,0-2.071,3.9c-.036.153-.139.32.009.475a1.664,1.664,0,0,0,.657.161,1.307,1.307,0,0,0,.76,0,3.548,3.548,0,0,0,1.626-.739c1.255-.852,2.392-1.859,3.6-2.768a18.919,18.919,0,0,1,12.234-4.1,18.214,18.214,0,0,1,7.345,1.778,31.116,31.116,0,0,1,6.013,4.072,11.427,11.427,0,0,0,2.293,1.555,2.1,2.1,0,0,0,2.016,0c.428-.236.884-.424,1.327-.634a14.786,14.786,0,0,0-4.889-5.887Z" transform="translate(-158.881 -555.789)"/><path d="M314.241,656.979c.481-2.905,2.116-5.171,4.034-7.281.08-.088.209-.148.21-.331a6.469,6.469,0,0,0-6.3,2.421c-.124-.15,0-.234.043-.315a7.1,7.1,0,0,1,5.431-3.743c.642-.112.644-.1.617-.745a5.536,5.536,0,0,1,1.011-3.652,3.33,3.33,0,0,1,1.36-1.1.449.449,0,0,1,.5.055q1.7,1.235,3.418,2.453a.592.592,0,0,1,.257.366,5.659,5.659,0,0,1-.749,4.632,2.8,2.8,0,0,1-2.98,1.366,1.17,1.17,0,0,1-.475-.157c-.382-.284-.636-.16-.953.143a16.042,16.042,0,0,0-3.513,4.314,7.511,7.511,0,0,0-.73,2.181,17.462,17.462,0,0,0-.308,4.8,18.553,18.553,0,0,0,.773,4.413.534.534,0,0,1,0,.368,20.881,20.881,0,0,1-1.492-5.093,19.382,19.382,0,0,1-.154-5.106Z" transform="translate(-289.083 -594.768)"/><path class="a" d="M740.081,672.841a1.846,1.846,0,0,1-.479,1.4,1.024,1.024,0,0,1-1.555-.024,2.1,2.1,0,0,1-.064-2.532,1.048,1.048,0,0,1,1.746.032,1.745,1.745,0,0,1,.352,1.125Z" transform="translate(-683.121 -621.668)"/><path class="a" d="M439.269,673.171a1.88,1.88,0,0,1-.411,1.309.984.984,0,0,1-1.592,0,2.073,2.073,0,0,1-.035-2.426,1,1,0,0,1,1.7.036A1.788,1.788,0,0,1,439.269,673.171Z" transform="translate(-404.595 -622.008)"/><path class="i" d="M576.641,793.8c.517,0,1.034-.008,1.551.005.159,0,.375.015.419.207s-.141.286-.279.378a3.848,3.848,0,0,1-3.46,0c-.128-.085-.29-.173-.265-.344.031-.21.247-.222.4-.227.544-.018,1.059-.023,1.6-.023Z" transform="translate(-532.171 -735.182)"/></g></svg>