<svg xmlns="http://www.w3.org/2000/svg" width="162.528" height="151" viewBox="0 0 162.528 151"><defs><style>.a{fill:#fefefe;}.b{fill:#f69322;}.c{fill:#5a595c;}.d{fill:#919396;}.e{fill:#f3a327;}.f{fill:#fe0004;}.g{fill:#4c4c4f;}.h{fill:#5e5d60;}.i{fill:#fdfdfd;}</style></defs><g transform="translate(0 0.005)"><path d="M161.251,23.118c-2.221-8.185-6.85-14.951-12.737-20.926A7.627,7.627,0,0,0,145.347.245a4.118,4.118,0,0,0-5.255,2.184,5.479,5.479,0,0,0-.02,3.31A36.932,36.932,0,0,1,140.35,20.4c-1.307,6.764-5.025,12.062-10.326,16.324a36.977,36.977,0,0,1-15.244,7.314.679.679,0,0,1-.711-.257A37.432,37.432,0,0,0,91.418,33.76c-.41-.031-.492-.192-.52-.551-.074-.915-.236-1.824-.274-2.74a2.648,2.648,0,0,0-1.541-2.362,15.505,15.505,0,0,0-6.272-1.816,16.25,16.25,0,0,0-9.6,1.937A2.323,2.323,0,0,0,71.9,30.235c-.052.942-.222,1.877-.271,2.817-.027.509-.187.7-.709.72a26.342,26.342,0,0,0-5.365.807,38.588,38.588,0,0,0-17.13,9.2.674.674,0,0,1-.713.259,37.166,37.166,0,0,1-13.162-5.755c-5.228-3.658-9.284-8.251-11.461-14.339-1.835-5.134-1.7-10.416-1.157-15.728.141-1.372.645-2.681.7-4.065A3.844,3.844,0,0,0,18.568,0a6.529,6.529,0,0,0-4.411,2.051A51.857,51.857,0,0,0,5.95,12.292,37.1,37.1,0,0,0,1.794,43.926,44.191,44.191,0,0,0,14.109,63.341c3.338,3.172,6.872,6.105,11.327,7.649.309.107.357.294.345.578a4.281,4.281,0,0,0,.3,2.026c.2.423.1.629-.294.833a2.176,2.176,0,0,0-1.189,2.143c.028,1.964.148,3.937,0,5.889-.146,1.916.458,3.162,2.343,3.7.514.148.615.357.343.909a70.873,70.873,0,0,0-6.144,16.9,36.7,36.7,0,0,0-.277,15.116,28.765,28.765,0,0,0,10.219,16.438A61.466,61.466,0,0,0,49.3,145.817c9.679,3.622,19.775,4.917,30.029,5.15a102.374,102.374,0,0,0,23.281-2.108,63.03,63.03,0,0,0,10.557-3.055,3.5,3.5,0,0,0,2.3-1.647,21.032,21.032,0,0,1,1.26-1.96c.159.474.277.826.394,1.178.254.6.128.8.774.474.556-.279,1.157-.516,1.723-.8a65.186,65.186,0,0,0,9.683-5.842c5.275-3.893,9.343-8.722,11.483-15.008a33.3,33.3,0,0,0,.987-15.953,1.578,1.578,0,0,0-.879-1.192c-.545-.309-1.061-.557-1.676-.889a10.187,10.187,0,0,0,1.2-.814c.477-.445.658-.66.5-1.279A76.745,76.745,0,0,0,135.783,88.2c-.261-.552-.818-1.173-.708-1.636.126-.535,1-.641,1.564-.907a1.872,1.872,0,0,0,1.2-1.788c0-2.524.134-5.048.032-7.574-.019-.477-.067-1.057-.451-1.249-1.358-.68-1-1.714-.724-2.773a1.389,1.389,0,0,0,.039-.607c-.15-.768-.285-.365.525-.75a16.891,16.891,0,0,0,4.054-1.952,47.192,47.192,0,0,0,18.295-22.012,36.6,36.6,0,0,0,1.639-23.833ZM116.745,138.2a33.845,33.845,0,0,1-2.986,4.961v.012a.653.653,0,0,0-.093-.063,1.468,1.468,0,0,0-.884.179,87.753,87.753,0,0,1-27.435,5.043,104.8,104.8,0,0,1-12.235-.244c-3.284-.265-6.554-.607-9.794-1.179a67.933,67.933,0,0,1-20.9-6.969c-4.7-2.558-9.212-5.371-12.831-9.407a26.2,26.2,0,0,1-4.805-7.414,29.413,29.413,0,0,1-1.537-16.231c.047-.482.136-.959.227-1.435A63.855,63.855,0,0,1,29.055,89.3c.755-1.546.756-1.553,2.353-.887a2.535,2.535,0,0,0,2.067.146,75.866,75.866,0,0,1,10.7-3.447,125.829,125.829,0,0,1,16.857-3.064q5.89-.665,11.81-.975c1.452-.077,2.908-.03,4.355-.161a55.335,55.335,0,0,1,7.265-.071c3.436.138,6.875.243,10.3.563,2.462.23,4.929.414,7.382.74.508.067.715.259.694.776-.034.841-.021,1.683-.005,2.524a1.551,1.551,0,0,1-.535,1.2c-.446.438-1.044.747-1.28,1.381.232.334.6.271.908.249a3.087,3.087,0,0,1,2.341.931,5,5,0,0,1,1.488,2.534,6.5,6.5,0,0,1-1.541,6.721,2.957,2.957,0,0,1-4.324.015A5.206,5.206,0,0,1,98.2,94.756a11.015,11.015,0,0,1,.493-4.211c-.031-.132.551-.682.416-.707a4.28,4.28,0,0,0-1.251.79c-.841.779-1.686,1.556-2.578,2.276a1.643,1.643,0,0,0-.571,1.9,10.212,10.212,0,0,0,3.215,5.189c2.914,2.505,6.2,3.666,10.051,2.554l.009,0a1.817,1.817,0,0,0,.583.508,27.517,27.517,0,0,1,8.149,10.192,28.732,28.732,0,0,1,2.837,14.606,30.269,30.269,0,0,1-2.809,10.349Zm21.4-32.686c.678.32,1.158.708,1.159,1.507a34.767,34.767,0,0,1,.309,8.67,25.824,25.824,0,0,1-7.365,15.6c-3.748,3.875-8.284,6.629-13.011,9.108a2.533,2.533,0,0,0,.453-.7,30.568,30.568,0,0,0,1.852-4.856,34.18,34.18,0,0,0,1.052-12.43,30.16,30.16,0,0,0-3.039-10.842q-.2-.371-.4-.742a33.406,33.406,0,0,0-6.9-8.818c-.529-.493-1.355-.827-1.122-1.721.06-.043.122-.083.183-.125a3.158,3.158,0,0,0,.857-1.2c.255-.009.51-.021.766-.021l12.328-.013,7.282,3.58c.118.353.463.45.752.6,1.608.814,3.211,1.64,4.841,2.409Z" transform="translate(0 0)"/><path class="a" d="M262.058,761.159a27.8,27.8,0,0,1,2.938,10.3,29.113,29.113,0,0,1-5.223,19.085,1.946,1.946,0,0,1-.764.715c-2.061.712-4.109,1.459-6.209,2.057a91.621,91.621,0,0,1-19.978,3.216,109.961,109.961,0,0,1-20.926-.792c-12.093-1.62-23.277-5.566-33.024-13.078a27.047,27.047,0,0,1-10.166-14.7A30.337,30.337,0,0,1,168.292,755a3.4,3.4,0,0,1,1.9-.463,25.552,25.552,0,0,1,17.22,4.175c1.107.725,2.223,1.436,3.33,2.164a.9.9,0,0,1,.395.451,6.6,6.6,0,0,1-.074,2.05,37.741,37.741,0,0,0,2.2,13.972c.25.7.43,1.427.735,2.107a20.081,20.081,0,0,1-1.282-5.115,34.606,34.606,0,0,1,.028-10.962,2.222,2.222,0,0,1,.285-.943c.451-.316.875.093,1.316.051a2.228,2.228,0,0,0,1.378.008,6.533,6.533,0,0,0,2.826-1.292c2.282-1.554,4.344-3.394,6.558-5.039a38.991,38.991,0,0,1,10.372-5.681,31.482,31.482,0,0,1,9.669-1.8,36.724,36.724,0,0,1,7.684.543,35.385,35.385,0,0,1,14.288,6.381c2.276,1.648,4.4,3.486,6.665,5.15a10.954,10.954,0,0,0,3.082,1.674,3.107,3.107,0,0,0,2.519-.224c.655-.347,1.362-.581,2.019-.924a.772.772,0,0,1,.656-.121Z" transform="translate(-145.249 -648.101)"/><path class="b" d="M902.944,57.545c-.075,10.053-3.933,18.571-10.614,25.919a40.831,40.831,0,0,1-8.958,7.606,12.239,12.239,0,0,1-7.4,2.057,8.027,8.027,0,0,1-2.173-.416,28.158,28.158,0,0,1-8.317-4.48c-4.37-3.605-5.8-8.464-5.569-13.941.051-1.214.083-1.253,1.272-1.534a38.967,38.967,0,0,0,17.725-9.547,30.5,30.5,0,0,0,10.241-21.923,44.208,44.208,0,0,0-.915-11.253c-.058-.261-.253-.615-.034-.8.249-.2.571.048.838.168a4.845,4.845,0,0,1,1.443,1.118,46.431,46.431,0,0,1,10.634,16.366,29.144,29.144,0,0,1,1.823,10.655Z" transform="translate(-744.381 -25.248)"/><path class="a" d="M885.821,825.385a29.31,29.31,0,0,0,2.926-8.3,32.661,32.661,0,0,0-2.492-20.519,2.856,2.856,0,0,1-.106-.285c.1-.354.4-.517.67-.7a26.742,26.742,0,0,1,11.463-4.354,26.387,26.387,0,0,1,7.223.144,1.6,1.6,0,0,1,.766.321c1.681,10.194-.852,18.992-8.643,26.049a55.087,55.087,0,0,1-11.37,7.571.569.569,0,0,1-.435.067Z" transform="translate(-766.827 -684.79)"/><path class="c" d="M707.289,308.357c-2.207-.629-4.347-1.277-6.508-1.846a104.71,104.71,0,0,0-16.23-2.914c-1.733-.173-1.683-.187-1.854-1.967-.363-3.775-.787-7.544-1.177-11.317-.279-2.709-.544-5.422-.814-8.132-.02-.2-.017-.408-.046-.61-.191-1.372-.187-1.389,1.2-1.194a34.9,34.9,0,0,1,17.979,8.217,2.9,2.9,0,0,1,1.03,2.756c-.324,6.515,1.431,12.3,6.36,16.853.016.015.019.046.059.153Z" transform="translate(-589.149 -242.641)"/><path class="c" d="M328.581,308.654c5.532-5.021,7.155-11.226,6.531-18.217a1.113,1.113,0,0,1,.419-.991,34.109,34.109,0,0,1,10.381-6.647,30.277,30.277,0,0,1,8.844-2.3c.615-.061.821.028.74.742-.54,4.83-1.028,9.668-1.525,14.5q-.351,3.419-.665,6.842c-.058.618-.121,1.013-.964,1.1a109.784,109.784,0,0,0-22.792,4.651c-.262.083-.523.172-.971.32Z" transform="translate(-284.441 -242.811)"/><path class="d" d="M556.293,254.233a131.964,131.964,0,0,0-14.541.1c-.462.028-.568-.078-.52-.527.34-3.145.661-6.291.986-9.437q.736-7.117,1.471-14.234c.155-1.5.325-2.993.454-4.492a.694.694,0,0,1,.517-.657,13.254,13.254,0,0,1,10.217.008.7.7,0,0,1,.492.673c.54,5.3,1.1,10.605,1.65,15.908.421,4.06.823,8.12,1.257,12.178.051.478-.016.65-.53.571-.477-.074-.967-.064-1.451-.091Z" transform="translate(-468.517 -193.885)"/><path class="e" d="M822.039,633.93c-3.918-2.034-7.7-3.984-11.465-5.962a3.726,3.726,0,0,0-1.818-.451c-3.906.02-7.814,0-11.72.022-.564,0-.752-.124-.826-.736a10.14,10.14,0,0,0-5.8-8.02,1.163,1.163,0,0,1-.775-1.272c.064-.94.027-1.887.011-2.832-.007-.373.042-.539.5-.466a102.135,102.135,0,0,1,22.468,5.828,2.2,2.2,0,0,0,1.9-.114c1.831-.872,1.838-.857,2.7.989a74.914,74.914,0,0,1,4.7,12.51c.031.118.058.236.123.5Z" transform="translate(-683.558 -531.694)"/><path class="e" d="M851.57,743.031a26.572,26.572,0,0,0-12.592.767,30.958,30.958,0,0,0-7.528,3.819,33.648,33.648,0,0,0-8.384-10.365c-.673-.566-.544-.277.278-1.086a2.935,2.935,0,0,0,.728-1.075,1.673,1.673,0,0,1,1.09-.258c3.988-.016,7.977.019,11.964.04a1.951,1.951,0,0,1,.794.249c2.024,1.02,4.054,2.029,6.111,2.982.271.126.656.346,1.193.615,1.945.971,3.383,1.907,5.349,2.833a1.716,1.716,0,0,1,1,1.476Z" transform="translate(-712.128 -636.124)"/><path class="f" d="M730.384,657.664l2.133-1.854c2.957.022,4.523,1.327,5.052,4.277a7,7,0,0,1-1.1,5.543,3.449,3.449,0,0,1-5.944-.023,5.581,5.581,0,0,1-1.1-3.429,10.186,10.186,0,0,1,.586-3.951A.933.933,0,0,1,730.384,657.664Z" transform="translate(-631.438 -567.719)"/><path class="b" d="M72.016,73.674c-.039-.529-.36-.6-.74-.69a39.65,39.65,0,0,1-13.639-6.032A33.377,33.377,0,0,1,45.05,51.916a38.2,38.2,0,0,1-1.92-6.831c-.1-1.19-.236-2.379-.294-3.571a63.523,63.523,0,0,1,.294-8.306h0c.227-1.175.441-2.352.688-3.524.1-.474-.118-.478-.445-.364a5.389,5.389,0,0,0-2.045,1.444,53.026,53.026,0,0,0-6.823,8.729,33.215,33.215,0,0,0-4.394,26.834,39.9,39.9,0,0,0,10.749,18.5,34.348,34.348,0,0,0,9.368,7.192,10.08,10.08,0,0,0,7.58.856,24.694,24.694,0,0,0,9.153-4.966c4.23-3.795,5.455-8.744,5.054-14.234Z" transform="translate(-25.11 -25.334)"/><path class="d" d="M317.459,490.915a.894.894,0,0,0-.526-.9,80.372,80.372,0,0,0-11.018-5.491,100.782,100.782,0,0,0-24.529-6.372,78.388,78.388,0,0,0-9.145-.8h0l-.568-.024h0a7.835,7.835,0,0,0-2.044-.107,95.626,95.626,0,0,0-9.8-.009c-.281,0-.562-.014-.841,0a116.7,116.7,0,0,0-14.758,1.517,93.918,93.918,0,0,0-26.861,8.578,38.867,38.867,0,0,0-5.361,3.06,30.16,30.16,0,0,0,.031,5.2,32.9,32.9,0,0,0,3.348,1.635,1.432,1.432,0,0,0,1.3.046c2.036-.818,4.123-1.5,6.23-2.113a129.958,129.958,0,0,1,21.226-4.187,177.276,177.276,0,0,1,20.778-1.22,180.329,180.329,0,0,1,21.534,1.382,109.041,109.041,0,0,1,26.384,6.19,1.01,1.01,0,0,0,.873.011c1.084-.513,2.179-1,3.275-1.487a.654.654,0,0,0,.443-.7c-.015-1.4-.015-2.808.023-4.21Z" transform="translate(-183.44 -413.008)"/><path class="g" d="M986.2,534.25c-.04.015-.116.069-.149.05-.078-.044-.182-.116-.195-.19-.029-.162.116-.114.2-.1C986.156,534.027,986.217,534.1,986.2,534.25Z" transform="translate(-853.42 -462.264)"/><path class="h" d="M221.557,534.331a.177.177,0,0,1-.21.169c-.067,0-.156-.028-.1-.122a.257.257,0,0,1,.161-.113C221.452,534.257,221.51,534.308,221.557,534.331Z" transform="translate(-191.509 -462.5)"/><path d="M496.9,780.261a22.765,22.765,0,0,1,6.338.7c2.691.846,3.259,2.657,1.517,4.872a8.914,8.914,0,0,1-5.313,3.236c-.849.179-.99.516-.989,1.287a4.462,4.462,0,0,0,1.952,4.14,7.2,7.2,0,0,0,5.779,1.009c3.263-.766,5.062-3.5,5.551-6.494a2.564,2.564,0,0,0-.1-.665,1.135,1.135,0,0,1,.582-1.229,1.248,1.248,0,0,1,1.371.051,1.114,1.114,0,0,1,.472,1.282,16.79,16.79,0,0,1-1.91,4.942,9.463,9.463,0,0,1-5.064,3.975,8.758,8.758,0,0,1-8-1.272c-1.165-.821-1.784-1.1-3.274-.025-4.585,3.306-10.717,1.73-13.6-3.38a17.085,17.085,0,0,1-1.357-4.35,1.169,1.169,0,0,1,1.108-1.371,1.214,1.214,0,0,1,1.3,1.2,7.016,7.016,0,0,0,4.292,6.926,6.909,6.909,0,0,0,8.049-1.619c.786-.889.643-1.983.74-3.039.073-.787-.118-1.1-1-1.229a9.218,9.218,0,0,1-5.864-3.151,5.414,5.414,0,0,1-.708-1.083,2.388,2.388,0,0,1,1.076-3.493,11.04,11.04,0,0,1,4.425-1.092c.965-.088,1.934-.1,2.625-.134Z" transform="translate(-416.233 -675.452)"/><path class="e" d="M256.421,621.842a8.121,8.121,0,0,1-4.139.3,11.056,11.056,0,0,1-8.934-8.183,1.12,1.12,0,0,1,.418-1.253c1.09-.92,2.139-1.887,3.2-2.837.916-.8,1.185-.939,1.319-1.073a9.7,9.7,0,0,0,1.3-1.208c.516-.48,1.013-.981,1.553-1.431.41-.341.434-.586.465-1.324a23.011,23.011,0,0,0,0-2.464c-.042-.724-.038-.861-.525-.92a173.208,173.208,0,0,0-21-1.345,168.373,168.373,0,0,0-25.175,1.836,106.738,106.738,0,0,0-21.65,5.364c-2.629.985-1.71,1.055-4.36-.094-.531-.23-.759-.2-1.021.348a88.631,88.631,0,0,0-4.08,9.725,44.563,44.563,0,0,0-2.239,9.112c.152-.019.3-.034.454-.056a25.347,25.347,0,0,1,16.765,2.875c1.889,1.063,3.654,2.321,5.5,3.454.392-.021.3-.357.342-.572a20.278,20.278,0,0,1,3.886-8.562,42.989,42.989,0,0,1,3.306-4.015c.173-.182.395-.377.3-.659s-.407-.285-.654-.281c-.539.008-1.069-.129-1.6-.11a11.5,11.5,0,0,0-8.942,4.073,12.242,12.242,0,0,1,6.494-5.653,17.073,17.073,0,0,1,3.627-.927c.849-.118.876-.207.807-1.033a11.371,11.371,0,0,1,.461-4.387,7.346,7.346,0,0,1,3.2-4.242c.733-.449,1.323-.286,2.1.529a13.707,13.707,0,0,0,4.2,3.048,2.413,2.413,0,0,1,1.663,1.8c.055.328.1.657.129.986a9.149,9.149,0,0,1-2.695,7.95,4.391,4.391,0,0,1-5.1.827,1.266,1.266,0,0,0-1.691.3c-1.319,1.349-2.723,2.617-3.925,4.081a17.63,17.63,0,0,0-3.768,7.1c-.066.278-.253.582.016.864a3.026,3.026,0,0,0,1.2.293,2.376,2.376,0,0,0,1.382,0,6.454,6.454,0,0,0,2.958-1.345c2.282-1.55,4.351-3.381,6.554-5.036,6.594-4.953,13.91-7.711,22.253-7.45a33.13,33.13,0,0,1,13.361,3.233,56.6,56.6,0,0,1,10.937,7.407,20.789,20.789,0,0,0,4.171,2.829,3.822,3.822,0,0,0,3.667-.008c.779-.43,1.608-.771,2.414-1.152a26.9,26.9,0,0,0-8.894-10.709Z" transform="translate(-148.505 -519.493)"/><path d="M315.967,669.1c.874-5.285,3.85-9.406,7.338-13.244.145-.16.38-.269.383-.6-4.6-.563-8.5.667-11.457,4.4-.226-.273,0-.426.078-.572,2.093-4,5.547-6.05,9.879-6.809,1.167-.2,1.171-.18,1.123-1.355a10.07,10.07,0,0,1,1.839-6.643,6.058,6.058,0,0,1,2.474-1.993.817.817,0,0,1,.912.1q3.1,2.247,6.217,4.462a1.077,1.077,0,0,1,.467.665,10.293,10.293,0,0,1-1.362,8.427,5.087,5.087,0,0,1-5.42,2.485,2.128,2.128,0,0,1-.864-.285c-.695-.516-1.157-.29-1.733.261a29.182,29.182,0,0,0-6.39,7.848,13.66,13.66,0,0,0-1.328,3.968,31.763,31.763,0,0,0-.56,8.74,33.749,33.749,0,0,0,1.405,8.028.97.97,0,0,1,0,.67,37.984,37.984,0,0,1-2.715-9.265,35.253,35.253,0,0,1-.281-9.288Z" transform="translate(-270.204 -555.925)"/><path class="a" d="M742.122,674.159a3.358,3.358,0,0,1-.871,2.547,1.862,1.862,0,0,1-2.829-.044,3.823,3.823,0,0,1-.117-4.606,1.906,1.906,0,0,1,3.175.058,3.176,3.176,0,0,1,.64,2.046Z" transform="translate(-638.508 -581.069)"/><path class="a" d="M441.245,674.458a3.42,3.42,0,0,1-.748,2.38,1.79,1.79,0,0,1-2.9,0,3.772,3.772,0,0,1-.063-4.413,1.816,1.816,0,0,1,3.086.066A3.253,3.253,0,0,1,441.245,674.458Z" transform="translate(-378.172 -581.387)"/><path class="i" d="M578.31,793.8c.94,0,1.881-.015,2.821.01.29.008.682.027.762.376s-.257.52-.508.688a7,7,0,0,1-6.293,0c-.232-.154-.528-.314-.482-.626.056-.383.45-.4.729-.414.99-.032,1.926-.042,2.918-.042Z" transform="translate(-497.416 -687.169)"/></g></svg>