<svg xmlns="http://www.w3.org/2000/svg" width="758.283" height="704.498" viewBox="0 0 758.283 704.498"><defs><style>.a{fill:#fefefe;}.b{fill:#f69322;}.c{fill:#5a595c;}.d{fill:#919396;}.e{fill:#f3a327;}.f{fill:#fe0004;}.g{fill:#4c4c4f;}.h{fill:#5e5d60;}.i{fill:#fdfdfd;}</style></defs><g transform="translate(0 0.005)"><path d="M752.324,107.877c-10.36-38.187-31.957-69.755-59.427-97.632a35.585,35.585,0,0,0-14.772-9.081c-10.529-3.315-20.72.946-24.518,10.191-2.106,5.127-1.172,10.278-.094,15.443,4.738,22.725,5.71,45.6,1.3,68.42-6.1,31.556-23.446,56.274-48.177,76.161A172.52,172.52,0,0,1,535.512,205.5c-1.7.382-2.363-.338-3.315-1.2-30.127-27.094-64.929-43.671-105.68-46.779-1.912-.144-2.294-.9-2.425-2.57-.345-4.268-1.1-8.511-1.279-12.785-.213-5.221-2.733-8.549-7.189-11.018a72.341,72.341,0,0,0-29.262-8.473c-15.769-1.36-30.835,1.178-44.786,9.037-3.679,2.074-5.879,4.964-6.123,9.363s-1.034,8.755-1.266,13.143c-.125,2.375-.871,3.253-3.309,3.359a122.9,122.9,0,0,0-25.032,3.767c-30.2,7.677-57.051,21.616-79.921,42.937-.915.852-1.6,1.6-3.328,1.21a173.4,173.4,0,0,1-61.407-26.849c-24.392-17.066-43.314-38.494-53.473-66.9-8.561-23.954-7.947-48.6-5.4-73.378.658-6.4,3.008-12.51,3.272-18.965C106.056,8.052,98.015-.2,86.627,0c-8.248.144-14.91,4.174-20.582,9.57-14.91,14.183-27.42,30.365-38.287,47.8C-1.078,103.622-7.276,152.983,8.367,204.958c10.667,35.435,30.773,65.23,57.459,90.582,15.574,14.8,32.064,28.485,52.846,35.686,1.441.5,1.667,1.373,1.611,2.695a19.971,19.971,0,0,0,1.379,9.451c.915,1.974.445,2.933-1.373,3.886-3.986,2.087-5.609,5.522-5.547,10,.132,9.163.689,18.37-.013,27.476-.683,8.937,2.137,14.753,10.93,17.273,2.4.689,2.87,1.667,1.6,4.243-12.466,25.213-22.895,51.191-28.667,78.843C93.7,508.51,92.4,532.05,97.3,555.615c6.512,31.33,23.44,56.368,47.676,76.693,25.345,21.259,54.181,36.482,85.035,48.027,45.156,16.9,92.261,22.938,140.1,24.029a477.631,477.631,0,0,0,108.619-9.833c16.771-3.491,33.3-7.891,49.255-14.252,4.613-1.655,8.461-3.121,10.749-7.684,1.561-3.115,3.76-5.9,5.879-9.144.74,2.212,1.291,3.854,1.836,5.5,1.185,2.789.6,3.723,3.61,2.212,2.595-1.3,5.4-2.407,8.041-3.723a304.123,304.123,0,0,0,45.175-27.257c24.612-18.163,43.589-40.694,53.573-70.019,8.3-24.367,8.392-49.28,4.607-74.431-.414-2.764-1.63-3.867-4.1-5.559-2.545-1.441-4.951-2.6-7.822-4.149,2.137-1.467,4.024-2.306,5.622-3.8,2.225-2.074,3.071-3.077,2.338-5.966-5.678-22.45-14.145-43.846-23.991-64.741-1.216-2.576-3.817-5.471-3.3-7.634.589-2.494,4.675-2.99,7.3-4.23,3.6-1.711,5.628-4.375,5.622-8.342-.013-11.776.627-23.553.15-35.335-.088-2.225-.313-4.932-2.106-5.829-6.336-3.171-4.663-8-3.378-12.936a6.481,6.481,0,0,0,.182-2.833c-.7-3.585-1.329-1.7,2.451-3.5a78.81,78.81,0,0,0,18.915-9.106c38.8-25.627,67.888-59.483,85.355-102.7,14.6-36.112,17.918-73.347,7.646-111.195ZM544.681,644.787a157.9,157.9,0,0,1-13.932,23.145v.056a3.048,3.048,0,0,0-.432-.295c-1.5-.376-2.8.345-4.124.834-41.3,15.242-84.227,21.942-128,23.528a488.967,488.967,0,0,1-57.083-1.141c-15.324-1.235-30.578-2.833-45.7-5.5-34.094-6.017-66.941-15.888-97.5-32.515-21.929-11.933-42.981-25.057-59.865-43.89-9.294-10.372-17.06-21.71-22.418-34.589-10.2-24.493-11.244-49.875-7.17-75.728.219-2.25.633-4.475,1.059-6.694,5-26.385,14.289-51.285,26.034-75.34,3.522-7.214,3.529-7.245,10.98-4.136,3.165,1.316,6.23,2.112,9.645.683,16.176-6.781,32.954-11.77,49.926-16.082a587.056,587.056,0,0,1,78.649-14.3q27.479-3.1,55.1-4.55c6.775-.357,13.569-.138,20.319-.752a258.156,258.156,0,0,1,33.894-.332c16.032.646,32.076,1.134,48.07,2.626,11.488,1.072,22.995,1.93,34.439,3.453,2.369.313,3.334,1.21,3.24,3.623-.157,3.923-.1,7.853-.025,11.776a7.234,7.234,0,0,1-2.494,5.622c-2.081,2.043-4.87,3.485-5.973,6.443,1.084,1.561,2.776,1.266,4.237,1.159,4.387-.313,7.784,1.554,10.924,4.343a23.318,23.318,0,0,1,6.944,11.82c3.083,11.663,1.717,22.518-7.189,31.355-6,5.954-13.989,5.8-20.175.069a24.29,24.29,0,0,1-7.9-17.373c-.3-6.675.056-13.274,2.3-19.648-.144-.614,2.57-3.184,1.943-3.3-1.178.025-5.045,2.958-5.835,3.685-3.923,3.635-7.866,7.258-12.027,10.617-2.983,2.4-3.647,5.239-2.664,8.875a47.645,47.645,0,0,0,15,24.211c13.594,11.689,28.93,17.1,46.892,11.914l.044-.019c.589,1.09,1.767,1.648,2.72,2.369,16.753,12.6,28.9,28.867,38.018,47.55,9.852,21.654,15.349,44.153,13.237,68.145a141.221,141.221,0,0,1-13.1,48.284Zm99.82-152.5c3.165,1.492,5.4,3.3,5.409,7.032,1.937,13.431,2.883,26.912,1.441,40.449-3,28.222-14.678,52.42-34.364,72.77-17.486,18.081-38.651,30.929-60.705,42.492a11.817,11.817,0,0,0,2.112-3.253,142.607,142.607,0,0,0,8.643-22.656,159.469,159.469,0,0,0,4.907-57.992,140.713,140.713,0,0,0-14.177-50.584q-.949-1.73-1.868-3.46c-8.254-15.643-19.3-29.112-32.183-41.139-2.469-2.3-6.324-3.861-5.233-8.028.282-.2.57-.389.852-.583,2.006-1.4,2.883-3.585,4-5.609,1.191-.044,2.382-.1,3.572-.1q28.758-.038,57.515-.063,16.988,8.348,33.975,16.7c.551,1.648,2.162,2.1,3.51,2.783,7.5,3.8,14.979,7.652,22.587,11.237Z" transform="translate(0 0)"/><path class="a" d="M607.611,806.955a129.681,129.681,0,0,1,13.707,48.063c2.845,32.622-6.405,62.046-24.367,89.041a9.081,9.081,0,0,1-3.566,3.334c-9.614,3.321-19.172,6.806-28.968,9.6-30.478,8.68-61.614,13.206-93.208,15a513.078,513.078,0,0,1-97.633-3.692c-56.418-7.558-108.6-25.971-154.076-61.019-23.026-17.749-39.9-40.016-47.431-68.564-5.271-20-5.384-40.2-1.93-60.5,2.62-2.074,5.866-1.836,8.868-2.162,29.1-3.14,55.861,3.447,80.341,19.479,5.164,3.384,10.372,6.7,15.537,10.1a4.177,4.177,0,0,1,1.843,2.106c.9,3.227-.244,6.374-.345,9.563a176.088,176.088,0,0,0,10.241,65.187c1.166,3.266,2.006,6.656,3.428,9.828-3.3-7.628-4.782-15.719-5.979-23.866a161.455,161.455,0,0,1,.132-51.142,10.362,10.362,0,0,1,1.329-4.4c2.106-1.473,4.08.433,6.142.239a10.394,10.394,0,0,0,6.43.038c5.026-.64,9.138-3.272,13.186-6.03,10.648-7.25,20.268-15.837,30.6-23.509,14.922-11.074,30.816-20.375,48.39-26.5a146.86,146.86,0,0,1,45.112-8.411,171.339,171.339,0,0,1,35.849,2.532c24.593,4.638,46.516,15.186,66.659,29.77,10.617,7.689,20.544,16.263,31.1,24.029a51.127,51.127,0,0,0,14.377,7.809,14.494,14.494,0,0,0,11.751-1.046c3.058-1.618,6.355-2.708,9.42-4.312a3.6,3.6,0,0,1,3.059-.564Z" transform="translate(-62.63 -279.455)"/><path class="b" d="M1060.753,161.589c-.352,46.9-18.351,86.646-49.519,120.928-12.372,13.613-25.985,25.89-41.8,35.486-10.566,6.411-21.836,10.573-34.508,9.6a37.45,37.45,0,0,1-10.141-1.943c-13.913-5.139-27.338-11.444-38.8-20.9C865.6,287.932,858.919,265.263,860,239.711c.238-5.666.388-5.847,5.935-7.157,31.569-7.452,59.033-22.656,82.7-44.542,29.757-27.52,46.2-61.5,47.782-102.283a206.324,206.324,0,0,0-4.269-52.5c-.27-1.216-1.179-2.87-.157-3.71,1.159-.946,2.664.226,3.911.783a22.6,22.6,0,0,1,6.731,5.214c21.59,22.174,38.852,47.168,49.611,76.355a135.963,135.963,0,0,1,8.506,49.712Z" transform="translate(-320.97 -10.887)"/><path class="a" d="M885.821,951.249a136.731,136.731,0,0,0,13.65-38.713c5.947-33.08,3.158-65.143-11.626-95.733a13.445,13.445,0,0,1-.5-1.329c.445-1.654,1.849-2.413,3.127-3.253,16.314-10.749,34.025-17.849,53.479-20.312a123.087,123.087,0,0,1,33.7.67,7.449,7.449,0,0,1,3.572,1.5c7.84,47.562-3.974,88.607-40.324,121.535-15.919,14.421-34.194,25.3-53.046,35.322a2.656,2.656,0,0,1-2.03.313Z" transform="translate(-330.648 -295.274)"/><path class="c" d="M805.222,411.245c-10.3-2.933-20.28-5.96-30.365-8.611a488.532,488.532,0,0,0-75.722-13.594c-8.084-.808-7.853-.871-8.649-9.176-1.692-17.611-3.672-35.2-5.491-52.8-1.3-12.641-2.538-25.3-3.8-37.942-.093-.947-.081-1.905-.213-2.845-.89-6.4-.871-6.48,5.6-5.572,31.755,4.469,59.463,17.674,83.881,38.337,4.418,3.742,5.077,7.4,4.808,12.861-1.51,30.4,6.675,57.365,29.676,78.63.076.069.088.213.275.714Z" transform="translate(-254.036 -104.625)"/><path class="c" d="M328.586,411.914c25.809-23.427,33.38-52.376,30.472-84.991a5.194,5.194,0,0,1,1.955-4.625c14.152-13.456,30.528-23.446,48.434-31.011a141.259,141.259,0,0,1,41.264-10.73c2.87-.282,3.829.132,3.454,3.459-2.52,22.537-4.8,45.106-7.114,67.668q-1.635,15.953-3.1,31.919c-.27,2.883-.564,4.726-4.5,5.114a512.2,512.2,0,0,0-106.338,21.7c-1.222.389-2.438.8-4.531,1.492Z" transform="translate(-122.648 -104.698)"/><path class="d" d="M611.541,365.178a615.612,615.612,0,0,0-67.844.464c-2.156.132-2.652-.364-2.426-2.457,1.586-14.672,3.084-29.35,4.6-44.028q3.432-33.2,6.863-66.408c.721-6.982,1.517-13.964,2.119-20.958a3.239,3.239,0,0,1,2.412-3.065,61.837,61.837,0,0,1,47.669.038,3.272,3.272,0,0,1,2.294,3.14c2.52,24.743,5.133,49.48,7.7,74.218,1.961,18.94,3.841,37.886,5.866,56.819.238,2.231-.075,3.033-2.475,2.664-2.226-.345-4.513-.3-6.77-.426Z" transform="translate(-202.02 -83.601)"/><path class="e" d="M940.835,706.266c-18.281-9.489-35.917-18.589-53.49-27.815a17.372,17.372,0,0,0-8.48-2.105c-18.226.094-36.457,0-54.682.1-2.633.012-3.51-.577-3.854-3.435-2.118-17.367-11.927-29.432-27.056-37.417-2.708-1.429-3.83-2.851-3.616-5.935.3-4.387.125-8.806.05-13.212-.031-1.743.195-2.513,2.338-2.174,35.83,5.653,71.071,13.575,104.827,27.193a10.277,10.277,0,0,0,8.875-.533c8.542-4.067,8.574-4,12.6,4.613,8.831,18.883,16.565,38.18,21.917,58.367.144.552.27,1.1.576,2.356Z" transform="translate(-294.744 -229.261)"/><path class="e" d="M957.636,773.092c-19.849-3.184-39.472-2.67-58.75,3.579-12.647,4.1-24.11,10.517-35.122,17.817A156.962,156.962,0,0,0,824.65,746.13c-3.14-2.639-2.538-1.291,1.3-5.064a13.7,13.7,0,0,0,3.4-5.014c1.51-1.172,3.291-1.2,5.083-1.2,18.607-.075,37.216.088,55.816.188a9.1,9.1,0,0,1,3.7,1.16c9.445,4.757,18.914,9.463,28.51,13.913,1.267.589,3.059,1.617,5.565,2.871,9.075,4.531,15.781,8.9,24.957,13.218a8.006,8.006,0,0,1,4.656,6.888Z" transform="translate(-307.063 -274.291)"/><path class="f" d="M733.909,664.459q4.972-4.325,9.953-8.649c13.794.1,21.1,6.192,23.572,19.956,1.661,9.238.477,18.062-5.133,25.858-7.6,10.554-20.168,10.486-27.734-.106a26.039,26.039,0,0,1-5.139-16c.119-6.3.226-12.792,2.732-18.433A4.346,4.346,0,0,1,733.909,664.459Z" transform="translate(-272.27 -244.795)"/><path class="b" d="M229.67,236.477c-.182-2.469-1.68-2.82-3.453-3.221a184.99,184.99,0,0,1-63.632-28.14c-26.147-17.868-46.616-40.512-58.725-70.15-4.205-10.291-6.731-21.033-8.956-31.869-.47-5.553-1.1-11.1-1.373-16.659-.62-12.948.3-25.853,1.373-38.751h0c1.059-5.484,2.056-10.974,3.209-16.439.47-2.212-.552-2.231-2.074-1.7-3.817,1.335-6.788,3.911-9.539,6.737A247.391,247.391,0,0,0,54.667,77.011c-24.512,38.87-31.732,80.56-20.5,125.2,8.436,33.524,25.991,61.9,50.151,86.314,13.017,13.149,26.805,25.445,43.708,33.555,11.275,5.409,23.189,7.866,35.367,3.992,15.643-4.982,30.434-12.159,42.706-23.17,19.736-17.705,25.452-40.794,23.578-66.409Z" transform="translate(-10.827 -10.924)"/><path class="d" d="M704.37,541.588a4.171,4.171,0,0,0-2.456-4.193,375,375,0,0,0-51.4-25.62c-36.84-14.929-75.108-24.431-114.441-29.727-14.152-1.9-28.36-3.5-42.668-3.735h0l-2.651-.113h0a36.574,36.574,0,0,0-9.539-.5,446.4,446.4,0,0,0-45.708-.044c-1.31,0-2.62-.063-3.924-.006a544.489,544.489,0,0,0-68.853,7.076C319.086,492.233,277,504.63,237.4,524.747c-8.561,4.35-17.2,8.6-25.013,14.277-.921,8.1-.332,16.183.144,24.267,4.851,3.266,10.479,4.951,15.618,7.627a6.681,6.681,0,0,0,6.079.213c9.5-3.817,19.234-7,29.068-9.858a606.358,606.358,0,0,1,99.03-19.535,827.134,827.134,0,0,1,96.943-5.691A841.4,841.4,0,0,1,559.739,542.5c42.1,5.108,83.412,13.537,123.1,28.88a4.714,4.714,0,0,0,4.074.05c5.057-2.395,10.165-4.682,15.28-6.938a3.053,3.053,0,0,0,2.068-3.265c-.069-6.549-.069-13.1.107-19.642Z" transform="translate(-79.098 -178.085)"/><path class="g" d="M987.474,535.194c-.187.069-.539.32-.7.232-.364-.207-.847-.54-.909-.884-.137-.758.539-.533.915-.47C987.273,534.154,987.556,534.492,987.474,535.194Z" transform="translate(-367.986 -199.324)"/><path class="h" d="M222.764,534.575a.825.825,0,0,1-.978.79c-.314-.012-.727-.131-.489-.57a1.2,1.2,0,0,1,.752-.527C222.275,534.23,222.545,534.468,222.764,534.575Z" transform="translate(-82.577 -199.426)"/><path d="M555.829,780.261c10.824.27,20.362.388,29.569,3.284,12.554,3.948,15.2,12.4,7.076,22.731a41.587,41.587,0,0,1-24.787,15.1c-3.961.834-4.62,2.407-4.613,6,.02,7.978,1.968,14.666,9.106,19.316a33.593,33.593,0,0,0,26.962,4.707c15.223-3.573,23.615-16.333,25.9-30.3.163-.984-.363-2.062-.489-3.1a5.3,5.3,0,0,1,2.714-5.734,5.824,5.824,0,0,1,6.4.238,5.2,5.2,0,0,1,2.2,5.98c-2.312,7.922-4.13,16.006-8.912,23.058-5.941,8.754-13.469,15.4-23.628,18.544-13.325,4.118-25.834,2.15-37.31-5.935-5.434-3.829-8.322-5.133-15.273-.119-21.39,15.423-50,8.072-63.444-15.77-3.591-6.373-4.575-13.43-6.331-20.293-.808-3.158,1.962-6.211,5.171-6.4a5.664,5.664,0,0,1,6.086,5.621c-.257,15.08,6.656,26.047,20.024,32.315a32.233,32.233,0,0,0,37.554-7.553c3.667-4.148,3-9.25,3.453-14.176.339-3.672-.552-5.146-4.663-5.735a43.012,43.012,0,0,1-27.357-14.7,25.237,25.237,0,0,1-3.3-5.052c-3.428-6.818-1.654-12.64,5.02-16.294,6.412-3.51,13.519-4.457,20.645-5.1,4.5-.408,9.025-.477,12.247-.627Z" transform="translate(-179.476 -291.249)"/><path class="e" d="M567.52,701.537c-6.3,2.313-12.717,2.413-19.31,1.385-20.036-3.12-37.56-19.146-41.684-38.18a5.224,5.224,0,0,1,1.949-5.848c5.083-4.292,9.978-8.805,14.942-13.236,4.274-3.754,5.528-4.381,6.154-5.008,5.014-4.387,4.387-3.76,6.061-5.634,2.406-2.237,4.726-4.575,7.245-6.675,1.911-1.592,2.024-2.733,2.168-6.179a107.347,107.347,0,0,0-.019-11.495c-.194-3.378-.176-4.018-2.451-4.293A808.031,808.031,0,0,0,444.6,600.1a785.555,785.555,0,0,0-117.456,8.567c-34.439,5.189-68.314,12.779-101.01,25.026-12.265,4.594-7.978,4.919-20.344-.438-2.476-1.072-3.541-.941-4.763,1.623-7.063,14.828-13.776,29.8-19.034,45.375-4.682,13.864-8.756,27.9-10.448,42.511.708-.088,1.416-.156,2.118-.263,27.57-4.243,53.736-.364,78.216,13.412,8.812,4.958,17.047,10.831,25.658,16.113,1.83-.1,1.423-1.667,1.6-2.67,2.62-14.872,9.25-27.914,18.131-39.948A200.492,200.492,0,0,1,312.7,690.676c.808-.852,1.843-1.761,1.379-3.077-.483-1.378-1.9-1.328-3.052-1.31-2.513.038-4.989-.6-7.47-.514-16.5.607-30.885,5.9-41.722,19,7.026-12.341,16.9-21.384,30.3-26.373a79.693,79.693,0,0,1,16.922-4.324c3.961-.552,4.086-.965,3.767-4.819a53.049,53.049,0,0,1,2.15-20.47c2.62-8.317,7.326-15.148,14.922-19.792,3.422-2.093,6.173-1.334,9.821,2.469a63.956,63.956,0,0,0,19.579,14.221c4.556,2.068,7.095,4.456,7.759,8.411.257,1.529.47,3.064.6,4.6,1.247,14.188-1.8,26.949-12.572,37.09-6.618,6.235-15.637,7.953-23.778,3.86-3.359-1.686-5.578-.984-7.891,1.379-6.155,6.292-12.7,12.209-18.313,19.04-8.1,9.871-14.59,20.576-17.58,33.136-.307,1.3-1.178,2.713.075,4.029,1.818.627,3.572,1.5,5.578,1.366a11.081,11.081,0,0,0,6.449.006c5.315-.526,9.589-3.409,13.8-6.274,10.648-7.232,20.3-15.774,30.578-23.5,30.766-23.107,64.9-35.974,103.825-34.758a154.589,154.589,0,0,1,62.335,15.085c18.771,8.937,34.959,21.641,51.028,34.558,6.123,4.92,12.259,9.853,19.46,13.2,5.7,2.646,11.344,3.146,17.11-.037,3.635-2.006,7.5-3.6,11.262-5.377-9.6-20.163-23.12-37.078-41.5-49.963Z" transform="translate(-64.034 -224)"/><path d="M330.019,767.729c4.08-24.656,17.962-43.884,34.238-61.789.677-.747,1.774-1.254,1.786-2.808-21.478-2.626-39.678,3.114-53.454,20.55-1.053-1.272,0-1.987.364-2.669,9.764-18.684,25.878-28.228,46.089-31.77,5.447-.953,5.465-.84,5.24-6.324-.457-11.25,1.749-21.772,8.58-30.992a28.259,28.259,0,0,1,11.544-9.3,3.811,3.811,0,0,1,4.255.463q14.45,10.482,29.005,20.82a5.024,5.024,0,0,1,2.181,3.1c3.14,13.958,1.868,27.307-6.354,39.315-5.992,8.755-14.146,13.688-25.289,11.595a9.936,9.936,0,0,1-4.03-1.329c-3.24-2.407-5.4-1.354-8.085,1.216C364.6,728.778,353.483,740,346.276,754.424a63.736,63.736,0,0,0-6.2,18.514c-2.927,13.462-3.454,27.087-2.614,40.775a157.467,157.467,0,0,0,6.556,37.454,4.526,4.526,0,0,1-.02,3.127,177.219,177.219,0,0,1-12.666-43.225,164.494,164.494,0,0,1-1.31-43.333Z" transform="translate(-116.509 -239.71)"/><path class="a" d="M758.73,684.888c.069,4.788-.984,8.705-4.061,11.882a8.686,8.686,0,0,1-13.2-.206c-4.945-5.427-5.2-15.731-.545-21.491,4.218-5.214,10.836-5.114,14.815.27a14.813,14.813,0,0,1,2.984,9.545Z" transform="translate(-275.319 -250.551)"/><path class="a" d="M457.334,684.937c.031,4.456-.9,8.06-3.491,11.105-3.917,4.594-9.639,4.582-13.512,0-4.512-5.333-4.65-15.079-.294-20.588,4.149-5.245,10.473-5.132,14.4.307A15.172,15.172,0,0,1,457.334,684.937Z" transform="translate(-163.064 -250.688)"/><path class="i" d="M591.893,793.817c4.388,0,8.775-.068,13.162.045,1.353.038,3.183.125,3.553,1.754.364,1.591-1.2,2.425-2.369,3.209-6.982,4.657-22.355,4.657-29.362.019-1.084-.72-2.463-1.467-2.25-2.921.263-1.786,2.1-1.886,3.4-1.93,4.619-.149,8.988-.194,13.613-.194Z" transform="translate(-214.48 -296.3)"/></g></svg>