<svg xmlns="http://www.w3.org/2000/svg" width="136.666" height="136.666" viewBox="0 0 136.666 136.666"><defs><style>.a{fill:#fff;}.b{fill:#345d9d;}</style></defs><circle class="a" cx="60.937" cy="60.937" r="60.937" transform="translate(7.396 7.396)"/><path class="b" d="M68.333,0a68.333,68.333,0,1,0,68.333,68.333h0A68.134,68.134,0,0,0,68.73,0Zm1.158,70.649L62.376,94.64h38.055a1.919,1.919,0,0,1,1.985,1.853v.629l-3.309,11.416a2.465,2.465,0,0,1-2.482,1.82H38.385L48.147,77.1l-10.92,3.309L39.709,72.8l10.92-3.309L64.362,22.833a2.5,2.5,0,0,1,2.482-1.82H81.569a1.919,1.919,0,0,1,1.985,1.853v.629L71.973,62.873l10.92-3.309-2.316,7.942Z"/></svg>