<svg xmlns="http://www.w3.org/2000/svg" xmlns:xlink="http://www.w3.org/1999/xlink" width="91.597" height="122.13" viewBox="0 0 91.597 122.13"><defs><style>.a{fill:url(#a);}</style><linearGradient id="a" x1="0.5" x2="0.5" y2="1" gradientUnits="objectBoundingBox"><stop offset="0" stop-color="#f69322"/><stop offset="1" stop-color="#e88300"/></linearGradient></defs><path class="a" d="M85.873,15.266A5.725,5.725,0,0,0,91.6,9.541V5.725A5.725,5.725,0,0,0,85.873,0H5.725A5.725,5.725,0,0,0,0,5.725V9.541a5.725,5.725,0,0,0,5.725,5.725c0,21.7,12.169,40.01,28.825,45.8-16.656,5.788-28.825,24.1-28.825,45.8A5.725,5.725,0,0,0,0,112.589v3.817a5.725,5.725,0,0,0,5.725,5.725H85.873a5.725,5.725,0,0,0,5.725-5.725v-3.817a5.725,5.725,0,0,0-5.725-5.725c0-21.7-12.169-40.01-28.825-45.8C73.7,55.277,85.873,36.965,85.873,15.266ZM45.8,49.615c-13.784,0-24.808-15.867-24.808-34.349H70.606C70.606,33.859,59.512,49.615,45.8,49.615Z"/></svg>