<svg xmlns="http://www.w3.org/2000/svg" xmlns:xlink="http://www.w3.org/1999/xlink" width="139.573" height="122.126" viewBox="0 0 139.573 122.126"><defs><style>.a{fill:url(#a);}</style><linearGradient id="a" x1="0.5" x2="0.5" y2="1" gradientUnits="objectBoundingBox"><stop offset="0" stop-color="#f69322"/><stop offset="1" stop-color="#e88300"/></linearGradient></defs><path class="a" d="M130.85,37.143H8.723A8.723,8.723,0,0,1,0,28.42V10.973A8.723,8.723,0,0,1,8.723,2.25H130.85a8.723,8.723,0,0,1,8.723,8.723V28.42A8.723,8.723,0,0,1,130.85,37.143ZM117.765,13.154a6.542,6.542,0,1,0,6.542,6.542A6.542,6.542,0,0,0,117.765,13.154Zm-17.447,0a6.542,6.542,0,1,0,6.542,6.542A6.542,6.542,0,0,0,100.318,13.154ZM130.85,80.76H8.723A8.723,8.723,0,0,1,0,72.036V54.59a8.723,8.723,0,0,1,8.723-8.723H130.85a8.723,8.723,0,0,1,8.723,8.723V72.036A8.723,8.723,0,0,1,130.85,80.76ZM117.765,56.771a6.542,6.542,0,1,0,6.542,6.542A6.542,6.542,0,0,0,117.765,56.771Zm-17.447,0a6.542,6.542,0,1,0,6.542,6.542A6.542,6.542,0,0,0,100.318,56.771Zm30.532,67.606H8.723A8.723,8.723,0,0,1,0,115.653V98.206a8.723,8.723,0,0,1,8.723-8.723H130.85a8.723,8.723,0,0,1,8.723,8.723v17.447A8.723,8.723,0,0,1,130.85,124.376Zm-13.085-23.989a6.542,6.542,0,1,0,6.542,6.542A6.542,6.542,0,0,0,117.765,100.387Zm-17.447,0a6.542,6.542,0,1,0,6.542,6.542A6.542,6.542,0,0,0,100.318,100.387Z" transform="translate(0 -2.25)"/></svg>