<svg xmlns="http://www.w3.org/2000/svg" xmlns:xlink="http://www.w3.org/1999/xlink" width="139.57" height="122.124" viewBox="0 0 139.57 122.124"><defs><style>.a{fill:url(#a);}</style><linearGradient id="a" x1="0.5" x2="0.5" y2="1" gradientUnits="objectBoundingBox"><stop offset="0" stop-color="#f69322"/><stop offset="1" stop-color="#e88300"/></linearGradient></defs><path class="a" d="M8.723,115.651a8.714,8.714,0,0,0,8.723,8.723H61.062V80.758H8.723Zm69.785,8.723h43.616a8.714,8.714,0,0,0,8.723-8.723V80.758H78.508Zm52.339-87.231H119.371a23.769,23.769,0,0,0,2.753-10.9A24.024,24.024,0,0,0,98.135,2.25c-11.34,0-18.673,5.806-28.078,18.618C60.653,8.056,53.32,2.25,41.98,2.25A24.024,24.024,0,0,0,17.991,26.239a23.435,23.435,0,0,0,2.753,10.9H8.723A8.714,8.714,0,0,0,0,45.866V67.673a4.374,4.374,0,0,0,4.362,4.362H135.208a4.374,4.374,0,0,0,4.362-4.362V45.866A8.714,8.714,0,0,0,130.847,37.143Zm-88.894,0a10.9,10.9,0,0,1,0-21.808c5.425,0,9.432.9,23.471,21.808Zm56.182,0H74.664c14.012-20.854,17.91-21.808,23.471-21.808a10.9,10.9,0,1,1,0,21.808Z" transform="translate(0 -2.25)"/></svg>