<svg xmlns="http://www.w3.org/2000/svg" width="68.168" height="63.333" viewBox="0 0 68.168 63.333"><defs><style>.a{fill:#fefefe;}.b{fill:#f69322;}.c{fill:#5a595c;}.d{fill:#919396;}.e{fill:#f3a327;}.f{fill:#fe0004;}.g{fill:#4c4c4f;}.h{fill:#5e5d60;}.i{fill:#fdfdfd;}</style></defs><g transform="translate(0)"><path d="M67.633,9.693A19.934,19.934,0,0,0,62.291.916,3.2,3.2,0,0,0,60.963.1a1.727,1.727,0,0,0-2.2.916A2.3,2.3,0,0,0,58.75,2.4a15.49,15.49,0,0,1,.117,6.151A11.44,11.44,0,0,1,54.536,15.4a15.509,15.509,0,0,1-6.394,3.068.285.285,0,0,1-.3-.108,15.7,15.7,0,0,0-9.5-4.205c-.172-.013-.206-.081-.218-.231-.031-.384-.1-.765-.115-1.149a1.111,1.111,0,0,0-.646-.991,6.5,6.5,0,0,0-2.631-.762,6.816,6.816,0,0,0-4.026.812.974.974,0,0,0-.55.842c-.022.395-.093.787-.114,1.181-.011.214-.078.292-.3.3a11.049,11.049,0,0,0-2.25.339,16.185,16.185,0,0,0-7.185,3.86.283.283,0,0,1-.3.109,15.588,15.588,0,0,1-5.52-2.414,12.385,12.385,0,0,1-4.807-6.014,14.746,14.746,0,0,1-.485-6.6c.059-.575.27-1.125.294-1.7a1.612,1.612,0,0,0-1.7-1.745,2.738,2.738,0,0,0-1.85.86A21.75,21.75,0,0,0,2.5,5.153,15.562,15.562,0,0,0,.752,18.421a18.535,18.535,0,0,0,5.165,8.143,13.386,13.386,0,0,0,4.751,3.208c.13.045.15.123.145.242a1.8,1.8,0,0,0,.124.85c.082.177.04.264-.123.349a.913.913,0,0,0-.5.9c.012.824.062,1.651,0,2.47a1.287,1.287,0,0,0,.983,1.553c.216.062.258.15.144.381A29.726,29.726,0,0,0,8.863,43.6a15.394,15.394,0,0,0-.116,6.34,12.065,12.065,0,0,0,4.286,6.895,25.78,25.78,0,0,0,7.645,4.318,38.037,38.037,0,0,0,12.595,2.16,42.938,42.938,0,0,0,9.765-.884,26.438,26.438,0,0,0,4.428-1.281,1.47,1.47,0,0,0,.966-.691,8.825,8.825,0,0,1,.528-.822l.165.494c.106.251.054.335.325.2.233-.117.485-.216.723-.335a27.34,27.34,0,0,0,4.061-2.45,12.969,12.969,0,0,0,4.816-6.295,13.967,13.967,0,0,0,.414-6.691.662.662,0,0,0-.368-.5c-.229-.13-.445-.234-.7-.373a4.271,4.271,0,0,0,.505-.341c.2-.186.276-.277.21-.536a32.189,32.189,0,0,0-2.157-5.82c-.109-.232-.343-.492-.3-.686.053-.224.42-.269.656-.38a.785.785,0,0,0,.505-.75c0-1.059.056-2.117.014-3.177-.008-.2-.028-.443-.189-.524-.57-.285-.419-.719-.3-1.163a.583.583,0,0,0,.016-.255c-.063-.322-.119-.153.22-.314a7.085,7.085,0,0,0,1.7-.819,19.793,19.793,0,0,0,7.673-9.232,15.353,15.353,0,0,0,.687-10ZM48.966,57.96a14.194,14.194,0,0,1-1.252,2.081v.005a.275.275,0,0,0-.039-.026.616.616,0,0,0-.371.075A36.805,36.805,0,0,1,35.8,62.21a43.959,43.959,0,0,1-5.132-.1c-1.378-.111-2.749-.255-4.108-.495a28.493,28.493,0,0,1-8.765-2.923,19.461,19.461,0,0,1-5.382-3.946,10.989,10.989,0,0,1-2.015-3.11,12.337,12.337,0,0,1-.645-6.808c.02-.2.057-.4.1-.6a26.783,26.783,0,0,1,2.34-6.773c.317-.648.317-.651.987-.372a1.063,1.063,0,0,0,.867.061A31.819,31.819,0,0,1,18.529,35.7a52.775,52.775,0,0,1,7.07-1.285q2.47-.279,4.954-.409c.609-.032,1.22-.012,1.827-.068a23.208,23.208,0,0,1,3.047-.03c1.441.058,2.884.1,4.321.236,1.033.1,2.067.174,3.1.31.213.028.3.109.291.326-.014.353-.009.706,0,1.059a.65.65,0,0,1-.224.505c-.187.184-.438.313-.537.579.1.14.25.114.381.1a1.3,1.3,0,0,1,.982.39,2.1,2.1,0,0,1,.624,1.063,2.725,2.725,0,0,1-.646,2.819A1.24,1.24,0,0,1,41.9,41.3a2.184,2.184,0,0,1-.71-1.562,4.62,4.62,0,0,1,.207-1.766c-.013-.055.231-.286.175-.3a1.8,1.8,0,0,0-.525.331c-.353.327-.707.652-1.081.954a.689.689,0,0,0-.239.8,4.64,4.64,0,0,0,5.564,3.248l0,0a.762.762,0,0,0,.245.213,11.541,11.541,0,0,1,3.418,4.275,12.051,12.051,0,0,1,1.19,6.126,12.7,12.7,0,0,1-1.178,4.341ZM57.94,44.251c.285.134.486.3.486.632a14.582,14.582,0,0,1,.13,3.636,10.831,10.831,0,0,1-3.089,6.542,20.805,20.805,0,0,1-5.457,3.82,1.062,1.062,0,0,0,.19-.292,12.82,12.82,0,0,0,.777-2.037,14.336,14.336,0,0,0,.441-5.213,12.65,12.65,0,0,0-1.274-4.547q-.085-.156-.168-.311a14.012,14.012,0,0,0-2.893-3.7c-.222-.207-.568-.347-.47-.722l.077-.052a1.325,1.325,0,0,0,.359-.5c.107,0,.214-.009.321-.009l5.171-.006,3.054,1.5c.05.148.194.189.316.25.674.341,1.347.688,2.031,1.01Z" transform="translate(0 0.005)"/><path class="a" d="M207.327,753.9a11.658,11.658,0,0,1,1.232,4.321,12.211,12.211,0,0,1-2.191,8,.817.817,0,0,1-.321.3c-.864.3-1.723.612-2.6.863a38.428,38.428,0,0,1-8.379,1.349,46.12,46.12,0,0,1-8.777-.332,28.311,28.311,0,0,1-13.851-5.485,11.344,11.344,0,0,1-4.264-6.164,12.724,12.724,0,0,1-.174-5.439,1.425,1.425,0,0,1,.8-.194,10.717,10.717,0,0,1,7.222,1.751c.464.3.932.6,1.4.908a.375.375,0,0,1,.166.189,2.769,2.769,0,0,1-.031.86,15.829,15.829,0,0,0,.921,5.86c.1.294.18.6.308.884a8.424,8.424,0,0,1-.538-2.146,14.513,14.513,0,0,1,.012-4.6.932.932,0,0,1,.119-.4c.189-.132.367.039.552.021a.934.934,0,0,0,.578,0,2.739,2.739,0,0,0,1.185-.542c.957-.652,1.822-1.424,2.751-2.113a16.348,16.348,0,0,1,4.35-2.383,13.2,13.2,0,0,1,4.056-.756,15.392,15.392,0,0,1,3.223.228,14.84,14.84,0,0,1,5.993,2.676c.954.691,1.847,1.462,2.8,2.16a4.6,4.6,0,0,0,1.293.7,1.3,1.3,0,0,0,1.056-.094c.275-.145.571-.243.847-.388a.325.325,0,0,1,.275-.051Z" transform="translate(-158.334 -706.483)"/><path class="b" d="M877.949,41.065A15.927,15.927,0,0,1,873.5,51.937a17.123,17.123,0,0,1-3.757,3.19,5.133,5.133,0,0,1-3.1.863,3.367,3.367,0,0,1-.912-.175,11.81,11.81,0,0,1-3.488-1.879,6.733,6.733,0,0,1-2.336-5.847c.021-.509.035-.526.534-.643a16.344,16.344,0,0,0,7.434-4,12.791,12.791,0,0,0,4.3-9.2,18.548,18.548,0,0,0-.384-4.72c-.024-.109-.106-.258-.014-.334s.239.02.352.07a2.033,2.033,0,0,1,.605.469,19.475,19.475,0,0,1,4.46,6.864,12.224,12.224,0,0,1,.765,4.469Z" transform="translate(-811.443 -27.517)"/><path class="a" d="M885.82,805.45a12.292,12.292,0,0,0,1.227-3.48A13.7,13.7,0,0,0,886,793.364a1.241,1.241,0,0,1-.044-.12c.04-.149.166-.217.281-.292a11.219,11.219,0,0,1,4.808-1.826,11.072,11.072,0,0,1,3.03.06.669.669,0,0,1,.321.135,11.34,11.34,0,0,1-3.625,10.926A23.1,23.1,0,0,1,886,805.422a.239.239,0,0,1-.182.028Z" transform="translate(-835.911 -746.479)"/><path class="c" d="M691.777,292.061c-.926-.264-1.823-.536-2.73-.774a43.931,43.931,0,0,0-6.807-1.222c-.727-.073-.706-.078-.778-.825-.152-1.583-.33-3.164-.494-4.747-.117-1.136-.228-2.274-.341-3.411-.008-.085-.007-.171-.019-.256-.08-.575-.078-.583.5-.5a14.636,14.636,0,0,1,7.541,3.447,1.216,1.216,0,0,1,.432,1.156A8.533,8.533,0,0,0,691.753,292c.007.006.008.019.025.064Z" transform="translate(-642.226 -264.496)"/><path class="c" d="M328.581,292.3a8.615,8.615,0,0,0,2.739-7.641.467.467,0,0,1,.176-.416,14.309,14.309,0,0,1,4.354-2.788,12.7,12.7,0,0,1,3.71-.965c.258-.025.344.012.31.311-.227,2.026-.431,4.055-.639,6.083q-.147,1.434-.279,2.869c-.024.259-.051.425-.4.46a46.045,46.045,0,0,0-9.56,1.951c-.11.035-.219.072-.407.134Z" transform="translate(-310.067 -264.68)"/><path class="d" d="M547.542,236.661a55.327,55.327,0,0,0-6.1.042c-.194.012-.238-.033-.218-.221.143-1.319.277-2.639.414-3.958l.617-5.97c.065-.628.136-1.255.19-1.884a.291.291,0,0,1,.217-.276,5.559,5.559,0,0,1,4.285,0,.294.294,0,0,1,.206.282c.226,2.224.461,4.448.692,6.672.176,1.7.345,3.406.527,5.108.021.2-.007.273-.222.239-.2-.031-.406-.027-.609-.038Z" transform="translate(-510.727 -211.347)"/><path class="e" d="M803.223,622.473c-1.643-.853-3.229-1.671-4.809-2.5a1.561,1.561,0,0,0-.763-.189c-1.638.008-3.277,0-4.916.009-.237,0-.316-.052-.347-.309a4.253,4.253,0,0,0-2.432-3.364.488.488,0,0,1-.325-.534c.027-.394.011-.792,0-1.188,0-.157.018-.226.21-.2a42.831,42.831,0,0,1,9.424,2.445.924.924,0,0,0,.8-.048c.768-.366.771-.359,1.133.415a31.416,31.416,0,0,1,1.97,5.247c.013.05.024.1.052.212Z" transform="translate(-745.14 -579.59)"/><path class="e" d="M834.771,738.269a11.147,11.147,0,0,0-5.281.322,12.992,12.992,0,0,0-3.157,1.6,14.111,14.111,0,0,0-3.516-4.347c-.282-.237-.228-.116.117-.455a1.232,1.232,0,0,0,.305-.451.7.7,0,0,1,.457-.108c1.673-.007,3.346.008,5.018.017a.816.816,0,0,1,.333.1c.849.428,1.7.851,2.563,1.251.114.053.275.145.5.258.816.407,1.419.8,2.243,1.188a.72.72,0,0,1,.419.619Z" transform="translate(-776.285 -693.427)"/><path class="f" d="M729.826,656.588l.895-.778a1.91,1.91,0,0,1,2.119,1.794,2.935,2.935,0,0,1-.461,2.325,1.446,1.446,0,0,1-2.493-.01,2.34,2.34,0,0,1-.462-1.438,4.273,4.273,0,0,1,.246-1.657A.391.391,0,0,1,729.826,656.588Z" transform="translate(-688.325 -618.86)"/><path class="b" d="M47.046,47.888c-.016-.222-.151-.254-.31-.29a16.63,16.63,0,0,1-5.72-2.53,14,14,0,0,1-5.279-6.306A16.021,16.021,0,0,1,34.93,35.9c-.042-.5-.1-1-.123-1.5a26.643,26.643,0,0,1,.123-3.484h0c.1-.493.185-.987.288-1.478.042-.2-.05-.2-.186-.153a2.26,2.26,0,0,0-.858.606,22.24,22.24,0,0,0-2.862,3.661A13.931,13.931,0,0,0,29.47,44.808a16.737,16.737,0,0,0,4.509,7.759,14.406,14.406,0,0,0,3.929,3.017,4.228,4.228,0,0,0,3.179.359,10.357,10.357,0,0,0,3.839-2.083,6.855,6.855,0,0,0,2.12-5.97Z" transform="translate(-27.372 -27.611)"/><path class="d" d="M256.178,482.889a.375.375,0,0,0-.221-.377,33.7,33.7,0,0,0-4.621-2.3,42.263,42.263,0,0,0-10.288-2.672,32.846,32.846,0,0,0-3.836-.336h0l-.238-.01h0a3.29,3.29,0,0,0-.858-.045,40.127,40.127,0,0,0-4.109,0c-.118,0-.236-.006-.353,0a48.937,48.937,0,0,0-6.19.636,39.39,39.39,0,0,0-11.266,3.6,16.313,16.313,0,0,0-2.249,1.284,12.649,12.649,0,0,0,.013,2.181,13.808,13.808,0,0,0,1.4.686.6.6,0,0,0,.547.019c.854-.343,1.729-.629,2.613-.886a54.5,54.5,0,0,1,8.9-1.756,74.374,74.374,0,0,1,8.715-.512,75.645,75.645,0,0,1,9.032.58,45.731,45.731,0,0,1,11.066,2.6.424.424,0,0,0,.366,0c.455-.215.914-.421,1.374-.624a.275.275,0,0,0,.186-.294c-.006-.589-.006-1.178.01-1.766Z" transform="translate(-199.967 -450.211)"/><path class="g" d="M986,534.1c-.017.006-.048.029-.062.021-.033-.019-.076-.049-.082-.08-.012-.068.048-.048.082-.042S986,534.037,986,534.1Z" transform="translate(-930.306 -503.905)"/><path class="h" d="M221.365,534.292a.074.074,0,0,1-.088.071c-.028,0-.065-.012-.044-.051a.108.108,0,0,1,.068-.047C221.321,534.261,221.345,534.282,221.365,534.292Z" transform="translate(-208.762 -504.162)"/><path d="M487.567,780.26a9.546,9.546,0,0,1,2.658.3c1.129.355,1.367,1.115.636,2.044a3.738,3.738,0,0,1-2.228,1.357c-.356.075-.415.216-.415.54a1.871,1.871,0,0,0,.819,1.737,3.02,3.02,0,0,0,2.424.423,3.149,3.149,0,0,0,2.328-2.724,1.072,1.072,0,0,0-.044-.279.476.476,0,0,1,.244-.515.523.523,0,0,1,.575.021.467.467,0,0,1,.2.538,7.041,7.041,0,0,1-.8,2.073,3.968,3.968,0,0,1-2.124,1.667,3.673,3.673,0,0,1-3.354-.534.936.936,0,0,0-1.373-.011,3.874,3.874,0,0,1-5.7-1.418,7.164,7.164,0,0,1-.569-1.824.49.49,0,0,1,.465-.575.509.509,0,0,1,.547.505,2.943,2.943,0,0,0,1.8,2.9,2.9,2.9,0,0,0,3.376-.679,1.984,1.984,0,0,0,.31-1.274c.031-.33-.05-.463-.419-.515a3.867,3.867,0,0,1-2.459-1.322,2.272,2.272,0,0,1-.3-.454,1,1,0,0,1,.451-1.465,4.63,4.63,0,0,1,1.856-.458c.4-.037.811-.043,1.1-.056Z" transform="translate(-453.733 -736.298)"/><path class="e" d="M207.147,609.219a3.406,3.406,0,0,1-1.736.125,4.637,4.637,0,0,1-3.747-3.432.47.47,0,0,1,.175-.526c.457-.386.9-.792,1.343-1.19.384-.338.5-.394.553-.45a4.069,4.069,0,0,0,.545-.506c.216-.2.425-.411.651-.6.172-.143.182-.246.195-.555a9.653,9.653,0,0,0,0-1.033c-.017-.3-.016-.361-.22-.386a72.665,72.665,0,0,0-8.807-.564,70.612,70.612,0,0,0-10.559.77,44.776,44.776,0,0,0-9.081,2.25c-1.1.413-.717.442-1.829-.039-.223-.1-.318-.085-.428.146a37.168,37.168,0,0,0-1.711,4.079,18.688,18.688,0,0,0-.939,3.822c.064-.008.127-.014.19-.024a10.631,10.631,0,0,1,7.032,1.206c.792.445,1.533.973,2.307,1.448.165-.009.128-.15.144-.24a8.505,8.505,0,0,1,1.63-3.591,18.028,18.028,0,0,1,1.387-1.684c.073-.077.166-.158.124-.277s-.171-.119-.274-.118c-.226,0-.448-.054-.672-.046a4.824,4.824,0,0,0-3.751,1.708,5.135,5.135,0,0,1,2.724-2.371,7.169,7.169,0,0,1,1.521-.389c.356-.05.367-.087.339-.433a4.77,4.77,0,0,1,.193-1.84,3.081,3.081,0,0,1,1.342-1.779c.308-.188.555-.12.883.222a5.749,5.749,0,0,0,1.76,1.278,1.012,1.012,0,0,1,.7.756c.023.137.042.276.054.414a3.838,3.838,0,0,1-1.13,3.334,1.842,1.842,0,0,1-2.138.347.531.531,0,0,0-.709.124c-.553.566-1.142,1.1-1.646,1.712a7.394,7.394,0,0,0-1.58,2.979c-.028.117-.106.244.007.362a1.267,1.267,0,0,0,.5.123,1,1,0,0,0,.58,0,2.706,2.706,0,0,0,1.241-.564c.957-.65,1.825-1.418,2.749-2.112a14.434,14.434,0,0,1,9.334-3.125,13.9,13.9,0,0,1,5.6,1.356,23.736,23.736,0,0,1,4.587,3.107,8.722,8.722,0,0,0,1.749,1.187,1.6,1.6,0,0,0,1.538,0c.327-.18.674-.323,1.012-.483a11.28,11.28,0,0,0-3.73-4.492Z" transform="translate(-161.884 -566.289)"/><path d="M313.741,653.472a10.962,10.962,0,0,1,3.078-5.555c.061-.067.159-.113.161-.252a4.936,4.936,0,0,0-4.805,1.847c-.095-.114,0-.179.033-.24a5.415,5.415,0,0,1,4.143-2.856c.49-.086.491-.076.471-.568a4.223,4.223,0,0,1,.771-2.786,2.541,2.541,0,0,1,1.038-.836.343.343,0,0,1,.383.042q1.3.942,2.608,1.872a.451.451,0,0,1,.2.279,4.317,4.317,0,0,1-.571,3.534,2.134,2.134,0,0,1-2.273,1.042.893.893,0,0,1-.362-.12c-.291-.216-.485-.122-.727.109a12.244,12.244,0,0,0-2.68,3.292,5.732,5.732,0,0,0-.557,1.664,13.317,13.317,0,0,0-.235,3.666,14.155,14.155,0,0,0,.589,3.367.407.407,0,0,1,0,.281,15.935,15.935,0,0,1-1.139-3.886,14.787,14.787,0,0,1-.118-3.9Z" transform="translate(-294.547 -606.004)"/><path class="a" d="M739.49,672.459a1.409,1.409,0,0,1-.365,1.068.781.781,0,0,1-1.187-.019,1.6,1.6,0,0,1-.049-1.932.8.8,0,0,1,1.332.024,1.331,1.331,0,0,1,.268.858Z" transform="translate(-696.032 -633.413)"/><path class="a" d="M438.7,672.8a1.434,1.434,0,0,1-.314,1,.751.751,0,0,1-1.215,0,1.582,1.582,0,0,1-.026-1.851.762.762,0,0,1,1.294.028A1.363,1.363,0,0,1,438.7,672.8Z" transform="translate(-412.242 -633.759)"/><path class="i" d="M576.159,793.8c.394,0,.789-.006,1.183,0,.122,0,.286.011.319.158s-.108.218-.213.289a2.936,2.936,0,0,1-2.64,0c-.1-.065-.221-.132-.2-.263.024-.16.189-.17.306-.174.415-.013.808-.017,1.224-.017Z" transform="translate(-542.23 -749.072)"/></g></svg>